<svg xmlns="http://www.w3.org/2000/svg" viewBox="0 0 254.25 84.13"><path fill="white" d="M63,45.26a18.29,18.29,0,0,1,5.72-13.59,20.17,20.17,0,0,1,28,0,18.8,18.8,0,0,1,5.68,13.87,18.7,18.7,0,0,1-5.72,13.9A19.57,19.57,0,0,1,82.45,65a18.75,18.75,0,0,1-13.9-5.69A19.07,19.07,0,0,1,63,45.26Zm8.71.16q0,5.52,3,8.75a10.41,10.41,0,0,0,8,3.25,10.39,10.39,0,0,0,8-3.22,12.13,12.13,0,0,0,3-8.6,12.12,12.12,0,0,0-3-8.59,10.39,10.39,0,0,0-8-3.26A10.28,10.28,0,0,0,74.69,37,11.85,11.85,0,0,0,71.66,45.42Zm73.4,17.68c0,1.75-.06,3.28-.17,4.61a31.59,31.59,0,0,1-.48,3.5,15.54,15.54,0,0,1-3.56,7.16q-5,5.76-13.75,5.76a18.39,18.39,0,0,1-12.16-4,16.29,16.29,0,0,1-5.68-11.33h8.56A9.73,9.73,0,0,0,119.45,73c1.77,2.3,4.34,3.45,7.73,3.45q9.36,0,9.35-11.48V59.85A15.9,15.9,0,0,1,124.83,65a15.73,15.73,0,0,1-12.35-5.46,20.2,20.2,0,0,1-4.85-13.82A21.35,21.35,0,0,1,112.14,32a15.66,15.66,0,0,1,12.8-6,14.86,14.86,0,0,1,11.59,5.19V27.08h8.53Zm-8.18-17.5A12.39,12.39,0,0,0,134,37a9.53,9.53,0,0,0-7.46-3.3,9.18,9.18,0,0,0-7.66,3.6,13.06,13.06,0,0,0-2.53,8.33,13,13,0,0,0,2.53,8.26,9.2,9.2,0,0,0,7.66,3.52,9.33,9.33,0,0,0,7.72-3.56A12.69,12.69,0,0,0,136.88,45.6Zm52.68,17.5c0,1.75-.06,3.28-.17,4.61a34.16,34.16,0,0,1-.48,3.5,15.54,15.54,0,0,1-3.56,7.16q-5,5.76-13.75,5.76-7.38,0-12.16-4a16.29,16.29,0,0,1-5.68-11.33h8.56A9.73,9.73,0,0,0,164,73c1.77,2.3,4.34,3.45,7.73,3.45Q181,76.48,181,65V59.85A15.9,15.9,0,0,1,169.33,65,15.71,15.71,0,0,1,157,59.58a20.2,20.2,0,0,1-4.85-13.82A21.29,21.29,0,0,1,156.64,32a15.66,15.66,0,0,1,12.8-6A14.86,14.86,0,0,1,181,31.25V27.08h8.53Zm-8.19-17.5A12.44,12.44,0,0,0,178.5,37a9.54,9.54,0,0,0-7.47-3.3,9.18,9.18,0,0,0-7.65,3.6,13.07,13.07,0,0,0-2.54,8.33,13,13,0,0,0,2.54,8.26A9.2,9.2,0,0,0,171,57.42a9.34,9.34,0,0,0,7.73-3.56A12.69,12.69,0,0,0,181.37,45.6ZM206.9,0V64h-8.53V0ZM30,33.58v8.24H47.57a15.6,15.6,0,0,1-5.79,10.6,17.63,17.63,0,0,1-11.7,4.4q-7.66,0-14.21-5.87a20.75,20.75,0,0,1-7-16.1,21.39,21.39,0,0,1,6.29-15.76,20.94,20.94,0,0,1,15.57-6.4,20.31,20.31,0,0,1,15.12,6.74l6.5-5.55a33.89,33.89,0,0,0-9-6.72,29.6,29.6,0,0,0-12.8-2.8A29.47,29.47,0,0,0,8.9,13.26,29.33,29.33,0,0,0,0,34.85,29.38,29.38,0,0,0,8.75,56.21a28.47,28.47,0,0,0,21,8.86,26.48,26.48,0,0,0,20.72-9.16,24.81,24.81,0,0,0,5.11-8.79,39.73,39.73,0,0,0,1.56-11.67V33.58ZM243.6,54.2a11.5,11.5,0,0,1-16,0,10.82,10.82,0,0,1-1.42-2l28.06-12.59-.07-.74a40.72,40.72,0,0,0-2.85-5.2,20.64,20.64,0,0,0-1.71-1.94,20.17,20.17,0,0,0-28,0A18.29,18.29,0,0,0,216,45.26a19.07,19.07,0,0,0,5.6,14.09A18.75,18.75,0,0,0,235.45,65a19.57,19.57,0,0,0,14.13-5.57,19,19,0,0,0,3.72-5.08l-8.66-1.54A9.7,9.7,0,0,1,243.6,54.2Zm-8-20.45a10.4,10.4,0,0,1,8,3.21l-18.88,8.09a11.7,11.7,0,0,1,3-8A10.28,10.28,0,0,1,235.6,33.75Z"/></svg>
