<svg xmlns="http://www.w3.org/2000/svg" viewBox="0 0 225.76 115"><path fill="white" stroke="white" stroke-miterlimit="10" d="M56.5,91.06a4.5,4.5,0,0,1-1-8.89A24.5,24.5,0,0,0,67.39,41c-7.26-7.26-23.34-11.3-34.65,0a24.54,24.54,0,0,0-7.07,15,4.5,4.5,0,0,1-9-.83A33.59,33.59,0,0,1,26.38,34.6c9.55-9.55,31.21-16.16,47.38,0A33.5,33.5,0,0,1,57.5,91,4.86,4.86,0,0,1,56.5,91.06Zm25.33-1.23A45,45,0,0,0,51.32,13a4.5,4.5,0,1,0-.26,9,36,36,0,1,1-36.87,39.5,4.5,4.5,0,1,0-9,.88,45,45,0,0,0,76.6,27.42ZM105.15,57.5A57,57,0,0,0,1.3,25a4.5,4.5,0,1,0,7.4,5.13,48,48,0,1,1,1.81,57.09,4.5,4.5,0,0,0-7.06,5.59A57,57,0,0,0,105.15,57.5Zm54.52,33.61a5.14,5.14,0,0,0,3.83-1.6,5.25,5.25,0,0,0,1.56-3.79V24.42a5.39,5.39,0,1,0-10.78,0V72.47L121.57,23.41a12,12,0,0,0-3.2-3.24A7.66,7.66,0,0,0,114.08,19a5.23,5.23,0,0,0-3.79,1.55,5.11,5.11,0,0,0-1.6,3.84v61.3a5.39,5.39,0,0,0,9.22,3.79,5.25,5.25,0,0,0,1.56-3.79V38l32.79,48.69A11,11,0,0,0,155.37,90,7.6,7.6,0,0,0,159.67,91.11Zm60.84,0a4.63,4.63,0,0,0,3.33-1.37,4.51,4.51,0,0,0,1.42-3.38,4.67,4.67,0,0,0-1.42-3.43,4.56,4.56,0,0,0-3.33-1.42H182V58h35.53a4.53,4.53,0,0,0,3.38-1.42,4.63,4.63,0,0,0,1.38-3.34,4.72,4.72,0,0,0-1.38-3.42,4.53,4.53,0,0,0-3.38-1.42H182V28.62h37.82a4.49,4.49,0,0,0,3.38-1.42,4.74,4.74,0,0,0,1.37-3.42A4.68,4.68,0,0,0,219.78,19H178.39a7,7,0,0,0-5.11,2.1,6.85,6.85,0,0,0-2.1,5V83.89a7.2,7.2,0,0,0,2.28,5.3,7.26,7.26,0,0,0,2.28,1.41,7.13,7.13,0,0,0,2.65.51Z"/></svg>
