<svg xmlns="http://www.w3.org/2000/svg" viewBox="0 0 150.67 109.68"><path fill="white" d="M68.58,42.37,65,53.37,41.6,45.74a20.58,20.58,0,0,1-6.21-3.22,15.07,15.07,0,0,1-4.29-5.16,14.24,14.24,0,0,1-1.66-5.91,25.76,25.76,0,0,1,1.46-8.91,55,55,0,0,1,2.44-6.11,17.11,17.11,0,0,1,3.43-5.13,14.9,14.9,0,0,1,4.74-3.06,12.93,12.93,0,0,1,5.36-1.1,24.31,24.31,0,0,1,7,1L77.21,15.8l-3.63,11L49.67,19a7.14,7.14,0,0,0-5.59.15c-1.59.79-3,3.32-3.72,5.43s-.94,5-.14,6.57a7.17,7.17,0,0,0,4.45,3.42ZM70.08,11,73.72,0,97.07,7.62a20.72,20.72,0,0,1,6.21,3.23A14.75,14.75,0,0,1,107.56,16a14.18,14.18,0,0,1,1.67,5.91,25.71,25.71,0,0,1-1.46,8.9,55.4,55.4,0,0,1-2.44,6.11,17.12,17.12,0,0,1-3.44,5.14,14.89,14.89,0,0,1-4.73,3,13.11,13.11,0,0,1-5.36,1.11,24.66,24.66,0,0,1-7-1L61.45,37.57l3.64-11L89,34.37a7.19,7.19,0,0,0,5.59-.14c1.59-.79,3-3.33,3.72-5.43s.94-5,.14-6.58A7.17,7.17,0,0,0,94,18.8ZM24.79,94.53V88.94a14.41,14.41,0,0,1-5.37,4.71,15,15,0,0,1-7,1.72,13.72,13.72,0,0,1-6.75-1.65,9.75,9.75,0,0,1-4.32-4.64A20.5,20.5,0,0,1,0,80.82V57.19H9.88V74.35q0,7.88.54,9.65a5.27,5.27,0,0,0,2,2.81,6,6,0,0,0,3.66,1,7.73,7.73,0,0,0,4.53-1.39A7,7,0,0,0,23.34,83c.5-1.37.74-4.73.74-10.08V57.19H34V94.53Zm47.56,0H62.47v-19c0-4-.21-6.64-.63-7.83a5.51,5.51,0,0,0-2.06-2.76,5.91,5.91,0,0,0-3.42-1,7.92,7.92,0,0,0-4.61,1.41A7,7,0,0,0,49,69q-.76,2.33-.76,8.58V94.53H38.32V57.19H47.5v5.49q4.88-6.33,12.3-6.33a14.78,14.78,0,0,1,6,1.18,10,10,0,0,1,4.09,3,11,11,0,0,1,1.94,4.15,31.16,31.16,0,0,1,.54,6.65Zm4.22,0V57.19h9.88V94.53ZM111.9,57.19v7.88h-6.75V80.12a37.42,37.42,0,0,0,.19,5.32,2.15,2.15,0,0,0,.88,1.25,2.77,2.77,0,0,0,1.67.49,12.57,12.57,0,0,0,4-1l.85,7.67a19.74,19.74,0,0,1-7.81,1.47,12.36,12.36,0,0,1-4.82-.89,7,7,0,0,1-3.14-2.32,9.15,9.15,0,0,1-1.39-3.85,47.87,47.87,0,0,1-.32-7V65.07H90.7V57.19h4.53V49.78L105.15,44V57.19Zm.38,0h10.51l8.93,26.51,8.72-26.51h10.23L137.48,93.12l-2.35,6.51a26.39,26.39,0,0,1-2.48,5,11,11,0,0,1-2.71,2.8,12,12,0,0,1-3.76,1.67,19.92,19.92,0,0,1-5,.59,26.65,26.65,0,0,1-5.59-.59l-.88-7.74a22.18,22.18,0,0,0,4.18.46,6.22,6.22,0,0,0,5.1-2,14.18,14.18,0,0,0,2.53-5.15ZM76.57,55.13V49h9.88v6.14Z"/></svg>
