<svg xmlns="http://www.w3.org/2000/svg" viewBox="0 0 201.59 106.4"><path fill="white" d="M162.62,65.41c1,20.12-8.49,23-25.71,23.09-15.76.9-24.75-2.94-24.75-23.09.22-12.09,9.49-16,9-32.47-.23-7.51,10.54-15.39,15.76-15.39,5.74,0,14.72,5.38,14.72,15.39C151.63,44.93,161.84,49.32,162.62,65.41ZM165,.32C157.7-.77,152,.93,145.39,4.8s-7.68,9.07-6.11,11.74c2.91,2.05,8.18,1.69,14.77-2.18S164.12,5.1,165,.32ZM136.2,5.38l-4-1.72,2.3,13.2,2.3-.57Zm56.7,81.53V74.4h-4.78V64.56c0-8.41,4.87-10.6,13.47-10.6V36.76c-9.84,0-12.32,3.92-14.8,8.51l-2.87-6.12H166V51.57h4.11V74.4h-4.2V86.91ZM101.48,71.06a19.48,19.48,0,0,1-13.37,4.58c-8,0-9.27-5.25-9.84-7.83h30.09c2-5.45,1-12.8-.19-16.15-2.77-8-11.46-13.85-22.83-13.85-14.42,0-25.7,9.27-25.7,24.94,0,18.33,13.38,25.88,25.22,25.88,9.94,0,17.58-2.2,24.65-8.31ZM78.56,58.35c.19-2.39,1.53-7.64,7.35-7.64,6.12,0,7,4,7.07,7.64ZM0,93.88V106.4H28.56V93.88H23.4V84.24c.67.57,4.49,3.72,12.42,3.72C48.14,88,57.6,78.6,57.6,63.41c0-13.56-7.64-25-22.54-25a19.28,19.28,0,0,0-11.56,4.1l-1.63-3.34H0V51.86H4v42ZM37.06,63.6c0,7.26-2.77,11.94-6.78,11.94-3.63,0-6.88-5-6.88-11.46-.38-7.54,3.06-12.22,6.78-12.22C34.39,51.86,37.06,57.87,37.06,63.6Z"/></svg>
