<svg xmlns="http://www.w3.org/2000/svg" viewBox="0 0 283.82 72"><path fill="white" d="M32,30.53c-3.53,9.58-8.13,18.94-19.87,18.94C7,49.47.86,46.8.86,40.83A6.48,6.48,0,0,1,7.27,34.2c6.7,0,4.83,7.64,7.78,7.64,1.94,0,2.81-1.88,2.81-3.53,0-2-1.44-4.76-2.31-6.56L5.47,10.66C4.1,7.78,0,8.64,0,5.33,0,3.17,1.3,0,16.49,0c2.74,0,9.22.29,9.22,4.39,0,2-1.66,2.52-1.66,4.25,0,2.74,3.17,7.78,4.39,7.78,2.16,0,3.67-5,3.67-6.7,0-3.24-2.3-3-2.3-5.47C29.81.43,36.58,0,39.17,0c2.38,0,7.71.36,7.71,3.67,0,4.25-4.32,2.38-6.84,6.63a44.73,44.73,0,0,0-3.75,8.49ZM66.74,21c0,2.88.22,7.34,4.11,7.34,5.18,0,4.46-6.77,4.46-10.22A55.77,55.77,0,0,0,75,10.37C74.45,6.77,70.92,8,70.92,5c0-4.25,14.47-5,17.21-5S91.8,1.51,91.8,4c0,2.31-.14,4.54-.14,6.84V25.35c0,4.32,4,2.3,4,5.76,0,4.89-12.75,6.26-16.71,6.26-5.54,0-1.87-4.32-4.75-4.32-.79,0-1.94,1.08-3.67,2.16a13.14,13.14,0,0,1-7.2,2.16c-13.68,0-12.53-10.8-12.53-21.6,0-11-5-6.19-5-10.95C45.79.22,63.94,0,64.51,0c2,0,2.23.94,2.23,2.74Zm73.68,6.18a26.78,26.78,0,0,1-.31-4.38V18.36c0-2.66-.36-7.56,3.68-7.56s3.74,6.05,3.74,9.07v5.35a22.58,22.58,0,0,1,2.47-.14,23.18,23.18,0,0,1,16.68,7c-.42-1.63-2.59-2.29-2.59-6.07V10.8C164.09,3.74,159.84,0,153,0a14.55,14.55,0,0,0-8.71,3.17c-2.09,1.65-3.38,3.24-4,3.24-1.51,0-1.58-6.41-10.15-6.41A14.22,14.22,0,0,0,121,3.17c-2,1.65-3.17,3.24-3.89,3.24-1.51,0-1.22-2.45-1.22-3.31,0-1.52-.14-3.1-1.94-3.1-.15,0-18,2-18,7.34,0,1.88,1,1.8,2,2.6.72.64,1.65,1.94,1.65,6.55v6.62c0,9-4.32,7.28-4.32,10.52,0,3.81,8.5,3.74,11.31,3.74,9.86,0,11.52-2.52,11.52-4.39,0-2.59-1.94-2.16-1.94-8.79V18.36c0-2.66-.36-7.56,3.67-7.56s3.74,6.48,3.74,9.07V24c.22,8.57-3.38,5.54-3.45,9.36a2.57,2.57,0,0,0,1.53,2.74A24.56,24.56,0,0,1,134,31.41,25.68,25.68,0,0,1,140.42,27.21ZM235.3,26V10.8c0-7.06-4.25-10.8-11.09-10.8a14.55,14.55,0,0,0-8.71,3.17c-2.09,1.65-3.39,3.24-4,3.24C210,6.41,210,0,201.39,0a14.22,14.22,0,0,0-9.15,3.17c-2,1.65-3.17,3.24-3.89,3.24-1.51,0-1.22-2.45-1.22-3.31,0-1.52-.15-3.1-1.95-3.1-.14,0-18,2-18,7.34,0,1.88,1,1.8,1.95,2.6.72.64,1.65,1.94,1.65,6.55v6.62c0,7.33-2.86,7.55-3.92,9.12l.77.85a24.12,24.12,0,0,1,13.62-4.43,23.46,23.46,0,0,1,6.88,1,14.31,14.31,0,0,1-.79-5.48V18.36c0-2.66-.36-7.56,3.68-7.56s3.74,6.48,3.74,9.07V24c.15,6.07-1.61,6.32-2.68,7.31a23.76,23.76,0,0,1,7.35,6c1,0,2,.07,3.25.07,2.59,0,11.23-.07,11.23-4.54,0-2.66-2.59-1.15-2.59-10V18.36c0-2.66-.36-7.56,3.67-7.56s3.75,6.05,3.75,9.07v6.48c0,4.18-2.52,4.11-2.52,6.77,0,3.75,8.35,4.25,10.73,4.25,2.81,0,11-.21,11-4.75C238,30.53,235.3,30.17,235.3,26ZM269,30.53c-3.53,9.58-8.14,18.94-19.87,18.94-5.19,0-11.31-2.67-11.31-8.64a6.48,6.48,0,0,1,6.41-6.63c6.7,0,4.83,7.64,7.78,7.64,1.94,0,2.81-1.88,2.81-3.53,0-2-1.44-4.76-2.31-6.56L242.42,10.66c-1.37-2.88-5.47-2-5.47-5.33C237,3.17,238.24,0,253.44,0c2.73,0,9.21.29,9.21,4.39,0,2-1.65,2.52-1.65,4.25,0,2.74,3.17,7.78,4.39,7.78,2.16,0,3.67-5,3.67-6.7,0-3.24-2.3-3-2.3-5.47,0-3.82,6.77-4.25,9.36-4.25,2.38,0,7.7.36,7.7,3.67,0,4.25-4.32,2.38-6.84,6.63a45.33,45.33,0,0,0-3.74,8.49ZM106,63.79l4.29-.68a6,6,0,0,0,2,4A7,7,0,0,0,117,68.43a6.77,6.77,0,0,0,4.43-1.21,3.62,3.62,0,0,0,1.45-2.86,2.64,2.64,0,0,0-1.28-2.31,19.26,19.26,0,0,0-4.43-1.47,39.85,39.85,0,0,1-6.61-2.08,6.33,6.33,0,0,1-3.75-5.86,6.62,6.62,0,0,1,.79-3.17,7,7,0,0,1,2.13-2.42,8.67,8.67,0,0,1,2.76-1.26,12.9,12.9,0,0,1,3.74-.52,14.78,14.78,0,0,1,5.29.87,7.25,7.25,0,0,1,3.36,2.34,9.19,9.19,0,0,1,1.49,4l-4.24.58a4.65,4.65,0,0,0-1.67-3.08,6.14,6.14,0,0,0-3.92-1.11,7.06,7.06,0,0,0-4.26,1A2.88,2.88,0,0,0,111,52.13a2.42,2.42,0,0,0,.53,1.52,3.86,3.86,0,0,0,1.67,1.15c.43.16,1.71.53,3.82,1.11a53.62,53.62,0,0,1,6.42,2,6.5,6.5,0,0,1,2.86,2.28,6.34,6.34,0,0,1,1,3.71A7.31,7.31,0,0,1,126,68a8.19,8.19,0,0,1-3.65,3,13.27,13.27,0,0,1-5.4,1q-5,0-7.59-2.07A9.64,9.64,0,0,1,106,63.79Zm34.63,3.75.62,3.83a15.87,15.87,0,0,1-3.27.39,7.35,7.35,0,0,1-3.66-.75,4.16,4.16,0,0,1-1.83-2,15.35,15.35,0,0,1-.53-5.12V49.22h-3.18V45.85H132V39.51l4.31-2.6v8.94h4.36v3.37h-4.36v15a7.37,7.37,0,0,0,.23,2.39,1.82,1.82,0,0,0,.74.84,2.89,2.89,0,0,0,1.48.31A13,13,0,0,0,140.67,67.54Zm19.76,3.88V67.66A9.35,9.35,0,0,1,152.32,72a10.33,10.33,0,0,1-4.23-.87A6.89,6.89,0,0,1,145.18,69a8.07,8.07,0,0,1-1.34-3.21,21.83,21.83,0,0,1-.26-4V45.85h4.33V60a24.92,24.92,0,0,0,.27,4.58,4.5,4.5,0,0,0,1.73,2.68,5.35,5.35,0,0,0,3.27,1,7.2,7.2,0,0,0,3.66-1,5.59,5.59,0,0,0,2.42-2.72,13.53,13.53,0,0,0,.72-5V45.85h4.33V71.42Zm10.47,0V49.22h-3.83V45.85h3.83V43.12a11.71,11.71,0,0,1,.46-3.82,5.55,5.55,0,0,1,2.2-2.74,8,8,0,0,1,4.42-1A21.18,21.18,0,0,1,182,36l-.65,3.78a14.62,14.62,0,0,0-2.56-.24,3.81,3.81,0,0,0-2.79.84,4.6,4.6,0,0,0-.82,3.16v2.36h5v3.37h-5v22.2Zm11.58,0V49.22h-3.83V45.85h3.83V43.12a11.71,11.71,0,0,1,.46-3.82,5.55,5.55,0,0,1,2.2-2.74,7.94,7.94,0,0,1,4.42-1,21.18,21.18,0,0,1,4.05.43L193,39.73a14.62,14.62,0,0,0-2.56-.24,3.81,3.81,0,0,0-2.79.84,4.54,4.54,0,0,0-.82,3.16v2.36h5v3.37h-5v22.2Z"/></svg>
