<svg xmlns="http://www.w3.org/2000/svg" viewBox="0 0 786 341.12"><path fill="rgba(255,255,255,.85)" stroke="rbga(0,0,0,.85)" d="M785.5,138.4a36.43,36.43,0,0,0-14.71-29.26c7.68-6.7,12.71-17.74,12.71-30.24,0-16.88-15-32-26.71-29.55C762.5,33.9,756.5,9.9,729.5,2.9c-33.61-8.71-74.82,6.29-85.69,44.51a59.64,59.64,0,0,0-2.3,14.66c-13.74-5.57-30.89-3.94-45.24,5.73-15.71,10.58-23.75,27.89-22.09,44a54.77,54.77,0,0,0-29,3.25c-19,7.39-31.3,23.23-31.84,38.73a50.85,50.85,0,0,0-12.33-.5c-14.65,1.18-27,8.39-33.74,18.32-6.72-10-19.15-17.18-33.85-18.33a51.07,51.07,0,0,0-12.49.56,50.21,50.21,0,0,0-14.61-28.73c-12.69-12.69-29.75-17.49-43.59-13.66a40.48,40.48,0,0,0,.95-12.12c-1.22-16.83-12.52-30.3-26.94-33.87A34.35,34.35,0,0,0,303.47,39a33.73,33.73,0,0,0-16.05,4c-8.17-18.39-23.29-32.87-45.54-38.31s-44.52-.29-60.72,12.13A78.82,78.82,0,0,0,132.78.74c-26.11,0-49,12.13-62.18,30.42A59.39,59.39,0,0,0,.56,86.8a59.41,59.41,0,0,0,69.7,61.32c-.06,1-.09,2-.09,3,0,28.29,22.7,51.23,50.71,51.23a49.58,49.58,0,0,0,6.83-.48c-7.65,37.61,18.48,77.09,61.14,90.35,31.62,9.82,63.91,2.62,84.63-16.14a46.09,46.09,0,0,0,68.28.54,31.74,31.74,0,0,0,27.57,17.91v0c0,25.46,25,46.1,55.84,46.1,21.78,0,40.63-10.3,49.83-25.31a80.58,80.58,0,0,0,42.89,12c21.65,0,41-8.09,54.19-20.88,5.77,7.07,15.14,11.66,25.72,11.66,17.55,0,31.77-12.61,31.77-28.17a25,25,0,0,0-.34-4.08c5.46,5.61,15.81,10.67,28,2.54,3.07-2.05,8.19-7.17,9.23-10.09a47.78,47.78,0,0,0,25.09,7c22.94,0,41.92-15.81,45.11-36.38A43,43,0,0,0,758,173.79,36.51,36.51,0,0,0,785.5,138.4Z"/></svg>
