<svg xmlns="http://www.w3.org/2000/svg" viewBox="0 0 77.53 10.25"><defs><style>.cls-1{fill:#fff;}</style></defs><title>startup</title><g id="Layer_2" data-name="Layer 2"><g id="Compound_Separate" data-name="Compound Separate"><path id="Startup" class="cls-1" d="M0,6.9l1.36-.11A2.68,2.68,0,0,0,1.81,8a2.46,2.46,0,0,0,1.1.77,4.44,4.44,0,0,0,1.67.29A4.31,4.31,0,0,0,6,8.85a2.09,2.09,0,0,0,1-.61,1.36,1.36,0,0,0,.3-.85A1.24,1.24,0,0,0,7,6.58,2.2,2.2,0,0,0,6,6c-.29-.1-.94-.26-1.94-.48A11.3,11.3,0,0,1,2,4.89,3,3,0,0,1,.8,4,2.09,2.09,0,0,1,.42,2.73a2.29,2.29,0,0,1,.47-1.4,2.79,2.79,0,0,1,1.37-1,5.52,5.52,0,0,1,2-.34A6.12,6.12,0,0,1,6.4.35a3.09,3.09,0,0,1,1.42,1A2.87,2.87,0,0,1,8.36,3L7,3.06a1.94,1.94,0,0,0-.75-1.42,3.15,3.15,0,0,0-1.9-.48,3.29,3.29,0,0,0-1.91.43,1.27,1.27,0,0,0-.6,1.05,1.08,1.08,0,0,0,.42.88,6.13,6.13,0,0,0,2.18.71,15.81,15.81,0,0,1,2.42.63,3.28,3.28,0,0,1,1.4,1,2.33,2.33,0,0,1,.46,1.41,2.52,2.52,0,0,1-.5,1.49A3.23,3.23,0,0,1,6.75,9.86a5.38,5.38,0,0,1-2.1.39,6.86,6.86,0,0,1-2.48-.39A3.43,3.43,0,0,1,.6,8.68,3.15,3.15,0,0,1,0,6.9Zm15,3.18V1.34h-3.6V.17H20V1.34H16.4v8.74Zm5.73,0L24.88.17h1.55l4.47,9.91H29.25L28,7.08H23.42l-1.2,3ZM23.84,6h3.69L26.4,3.27c-.35-.84-.61-1.52-.78-2.06A10.87,10.87,0,0,1,25,3.1Zm9.76,4.07V.17h4.84a6.9,6.9,0,0,1,2.21.27,2.36,2.36,0,0,1,1.22.94,2.64,2.64,0,0,1,.45,1.49,2.36,2.36,0,0,1-.75,1.78,4,4,0,0,1-2.32.92,3.71,3.71,0,0,1,.87.5,7.3,7.3,0,0,1,1.2,1.31l1.89,2.7H41.4L40,8a16.77,16.77,0,0,0-1-1.37A3.42,3.42,0,0,0,38.18,6a2.59,2.59,0,0,0-.66-.26,4.8,4.8,0,0,0-.8-.05H35v4.4ZM35,4.54h3.11a5.18,5.18,0,0,0,1.54-.18,1.59,1.59,0,0,0,.85-.6,1.46,1.46,0,0,0,.29-.89,1.4,1.4,0,0,0-.56-1.15,2.82,2.82,0,0,0-1.77-.46H35Zm13.57,5.54V1.34H45V.17h8.65V1.34H50.05v8.74ZM63.83.17h1.44V5.9a6.19,6.19,0,0,1-.37,2.37A3,3,0,0,1,63.55,9.7a5.06,5.06,0,0,1-2.54.55,5.67,5.67,0,0,1-2.51-.48,2.81,2.81,0,0,1-1.39-1.39,6,6,0,0,1-.42-2.48V.17h1.44V5.89a5,5,0,0,0,.27,1.9,1.87,1.87,0,0,0,.91,1,3.38,3.38,0,0,0,1.57.33,3.19,3.19,0,0,0,2.27-.66,3.52,3.52,0,0,0,.68-2.52Zm5.37,9.91V.17h4.11A11.41,11.41,0,0,1,75,.26a3.42,3.42,0,0,1,1.35.47,2.53,2.53,0,0,1,.88,1A2.82,2.82,0,0,1,77.53,3a2.91,2.91,0,0,1-.89,2.14,4.56,4.56,0,0,1-3.2.87h-2.8v4Zm1.44-5.2h2.82a3.25,3.25,0,0,0,2-.47A1.63,1.63,0,0,0,76,3.08,1.7,1.7,0,0,0,75.69,2a1.6,1.6,0,0,0-.91-.58,6.6,6.6,0,0,0-1.35-.09H70.64Z"/></g></g></svg>