<svg xmlns="http://www.w3.org/2000/svg" viewBox="0 0 550 185"><path fill="rgba(255,255,255,.6)" d="M471.29,133.44c7-.38,14.1-1,21.16-1,8.26-.07,16.52.34,24.78.55v.48c-10.21,0-20.43-.08-30.63,0-4.28.05-8.56.49-12.8.87a6.93,6.93,0,0,0-2.75,1c-7.69,4.59-17.05,5.85-27.27,5.4-1.11-.05-2.2-.18-3.95-.33A45.49,45.49,0,0,1,460,134.12C463.75,133.85,467.52,133.65,471.29,133.44Zm72.46,16.43c-6.52-1.28-13.06-2.53-19.58-3.81-2.37-.47-4.8-.85-7-1.49-2.88-.82-5.45-2.14-8.42-2.75a32.33,32.33,0,0,0-15.15.62c.11.25.1.38.2.44,6.35,3.88,13.77,5,22.3,3.51a13,13,0,0,1,3.93,0c4,.62,7.9,1.36,11.82,2.08,3.76.69,7.5,1.43,11.26,2.12,2.23.4,4.49.74,6.73,1.12l.21-.49C547.92,150.76,545.85,150.28,543.75,149.87ZM443.23,132.56a109.6,109.6,0,0,0-17.13,2.55A40.92,40.92,0,0,0,410,142.86c3.21.18,6,.34,8.87.47a4.09,4.09,0,0,0,1.17-.25c2.07-.55,4.07-1.23,6.2-1.63,6.55-1.25,12.08-3.38,16.28-6.81a4.82,4.82,0,0,1,2-1.12c4.66-.85,9.3-1.81,14.06-2.33,7-.77,14.15-1.21,21.23-1.79l3.49-.3.07-.42c-1.59,0-3.19-.07-4.77,0-4.28.23-8.57.44-12.82.8-3.82.32-7.62.77-11.38,1.29S447,132.23,443.23,132.56ZM497,148.31a27,27,0,0,0-9.92-4.7c-2.06-.51-4.08-1.09-6.11-1.64l.11-.31c.71,0,1.42-.16,2.14-.16a40.31,40.31,0,0,0,17-3.43,7.39,7.39,0,0,1,3-.53c7.34.17,14.66.42,22,.63.73,0,1.47,0,2.21-.08l0-.4c-5.16-.36-10.34-1.07-15.49-1-9.36.14-18.7-1.13-28-.1a42.61,42.61,0,0,0-13.83,3.87l6.18,1.21a34.55,34.55,0,0,1-4,.48,9.67,9.67,0,0,0-1.73.48c.34.38.54.87,1,1.13a55,55,0,0,0,19,5.57c2.4.3,4.9.39,7.17.9,6,1.37,12,2.93,17.94,4.37,1.71.42,3.53.67,5.3,1,.07-.18.15-.35.23-.53-5.63-1.41-11.29-2.76-16.86-4.25C501.71,150.15,498.72,149.54,497,148.31Zm-18.94,1.79c-3.49-.69-6.87-1.2-9.48-3.2-3.21-2.47-7.95-3.4-13-4.11a44.84,44.84,0,0,0-14.87.36l-1.09.74a17.78,17.78,0,0,1,2.34.59,74,74,0,0,0,23.35,5c5.7.4,11.31,1.47,16.89,2.4,4.91.82,9.72,1.89,14.59,2.8a13.69,13.69,0,0,0,2.4,0,10.35,10.35,0,0,0-3.07-1C490.16,152.54,484.14,151.29,478.09,150.1Zm-50.48-7.43H436l0-.27h-8.35Zm25.13,8.26c-4.2-.4-8.25-.77-11-3.1a6.43,6.43,0,0,0-1.78-.88c-8.76-3.31-18-3.23-27.47-1.53-.38.07-.84.41-.88.65s.34.59.7.71a74.32,74.32,0,0,0,22.24,4.14c4.59.14,9.17-.24,13.79.62,4.95.93,10.2,1.21,15.3,1.85,2.7.34,5.34.88,8,1.26s5.32.65,8,1l.11-.54c-5-.84-10-1.72-15-2.5C460.78,152,456.79,151.31,452.74,150.93ZM63.41,133.47c4.28.05,8.56.49,12.8.87a6.93,6.93,0,0,1,2.75,1c7.69,4.59,17.05,5.85,27.27,5.4,1.11-.05,2.2-.18,4-.33A45.49,45.49,0,0,0,90,134.12c-3.76-.27-7.53-.47-11.3-.68-7-.38-14.1-1-21.16-1-8.26-.07-16.52.34-24.78.55v.48C43,133.43,53.21,133.35,63.41,133.47Zm6.78-4.07c7.08.58,14.2,1,21.23,1.79,4.76.52,9.4,1.48,14.06,2.33a4.82,4.82,0,0,1,2,1.12c4.2,3.43,9.73,5.56,16.28,6.81,2.13.4,4.13,1.08,6.2,1.63a4.09,4.09,0,0,0,1.17.25c2.83-.13,5.66-.29,8.87-.47a40.92,40.92,0,0,0-16.09-7.75,109.6,109.6,0,0,0-17.13-2.55c-3.78-.33-7.42-1.25-11.17-1.78s-7.56-1-11.38-1.29c-4.25-.36-8.54-.57-12.82-.8-1.58-.08-3.18,0-4.77,0l.07.42Zm394.27,36c-6.52,1.54-13,3.07-19.61,4.5-6,1.31-12.08,2.56-18.19,3.69-5.31,1-10.71,1.8-16.08,2.66-6,1-12.05,1.92-18.1,2.82-4.59.67-9.18,1.39-13.83,1.83-8,.76-16,1.34-24.06,2a176.58,176.58,0,0,1-27.31-.09c-4.94-.37-9.94-.52-14.81-1.12-6.49-.79-12.91-1.86-19.31-2.92-5.26-.87-10.35-2-15.38-3.23,3-.81,6.05-1.64,9.07-2.46,7.11-1.94,14.18-4,21.27-6l18-5c.61.57.9,1.2,1.47,1.33a94.44,94.44,0,0,0,17.71,2.4c7.49.2,14.77-.74,22-1.72a34.84,34.84,0,0,1,4.17-.49q22.44-.13,44.89-.17h6.36l0-.46c-7.64-.29-15.28-.77-22.93-.82-9.29-.07-18.58.27-27.88.34a10.74,10.74,0,0,1-4.15-.81c-6.9-3.11-14.5-4-22.77-3.11-2.4.26-4.82.5-7.23.74l-.13-.32,19.64-4.82.15.25-3.61,1.7,5.49,1.28a76.84,76.84,0,0,0,23.37,1.7c7.44-.54,14.78-1.29,22.4-.79,10.4.68,20.89.84,31.34,1.2.88,0,1.77-.09,2.65-.14A122.06,122.06,0,0,0,426.23,158c-10-.4-20.07-.62-30.1-1a7.19,7.19,0,0,1-2.94-.68c-5.47-3.08-11.9-4.24-19.11-4-3.31.13-6.62.3-10.5.48,3-.69,5.44-1.32,7.95-1.82s5-.87,7.51-1.25,4.5-1.7,7.6-1.17l-4.43,1.59c.07.15.13.3.2.46,3.52.82,7,1.78,10.57,2.44,6.31,1.16,12.84,1,19.35,1,4.72-.06,9.46,0,14.16.2,5.54.29,11,.83,16.54,1.32,4.48.39,8.94.9,13.42,1.32,1.29.12,2.62.11,3.92.16l0-.45c-2.85-.35-5.69-.73-8.56-1-3.31-.36-6.64-.67-10-1-5.32-.48-10.66-.88-16-1.44-2.62-.28-5.79-.36-7.62-1.34a38.06,38.06,0,0,0-20-4.18c-1.78.07-3.58,0-5.37,0l0-.56L409.91,145l-.12-.41c-5.09-.56-9.79,1.32-14.8,1.31a15.23,15.23,0,0,1,3.26-1.31c5.83-1.6,10.71-3.92,14.32-7.25,1.1-1,2.19-2.36,3.8-2.78,6-1.6,12.12-3,18.32-4.23,5.34-1.05,10.86-1.75,16.3-2.61l7.15-1.14a14.36,14.36,0,0,0-2.09-.23c-2.15.2-4.31.39-6.43.7-7.25,1.09-14.57,2-21.69,3.4-8.3,1.59-16.45,3.5-24.58,5.43-8.8,2.08-16.22,5.36-21.27,10.47a5.6,5.6,0,0,0-.89,2l-12.74,2.51a4.4,4.4,0,0,1,2.1-1.43c6.37-2.36,11.57-5.36,14.67-9.72a9.27,9.27,0,0,1,4.15-2.77c4.85-1.73,9.81-3.37,14.92-4.76,5.8-1.58,11.81-2.88,17.75-4.25,4.19-1,8.43-1.85,12.65-2.77a6.35,6.35,0,0,0-2.79-.15c-5.9,1.18-11.83,2.31-17.62,3.67-6,1.4-11.94,3-17.81,4.6s-11.49,3.42-17.31,5c-10.54,2.94-19.9,6.78-25.05,13.54a9.11,9.11,0,0,1-6.29,3.6c-1.71.29-3.37.7-5.06,1.05l-.27-.45,2.13-1.05c5.67-2.76,10.53-5.91,12.68-10.36a6.51,6.51,0,0,1,4.41-3.58c1.49-.45,2.69-1.25,4.14-1.77,7.65-2.73,15.24-5.56,23.06-8.09,6.72-2.18,13.72-4,20.6-6a3.59,3.59,0,0,0-2-.14c-2.62.66-5.24,1.32-7.81,2.06-7,2-14.15,3.85-20.91,6.14q-16.23,5.5-32,11.52c-8.93,3.39-16.42,7.75-20.43,14-1,1.64-2.48,2.75-5.46,3.5-9.07,2.29-17.81,5.09-26.82,7.48-6.36,1.69-12.66,3.48-19.06,5.11-6.4-1.63-12.7-3.42-19.06-5.11-9-2.39-17.75-5.19-26.82-7.48-3-.75-4.42-1.86-5.46-3.5-4-6.27-11.5-10.63-20.43-14q-15.76-6-32-11.52c-6.76-2.29-13.91-4.13-20.91-6.14-2.57-.74-5.19-1.4-7.81-2.06a3.59,3.59,0,0,0-2,.14c6.88,2,13.88,3.84,20.6,6,7.82,2.53,15.41,5.36,23.06,8.09,1.45.52,2.65,1.32,4.14,1.77a6.51,6.51,0,0,1,4.41,3.58c2.15,4.45,7,7.6,12.68,10.36l2.13,1.05-.27.45c-1.69-.35-3.35-.76-5.06-1.05a9.11,9.11,0,0,1-6.29-3.6c-5.15-6.76-14.51-10.6-25-13.54-5.82-1.62-11.49-3.43-17.31-5s-11.79-3.2-17.81-4.6c-5.79-1.36-11.72-2.49-17.62-3.67a6.35,6.35,0,0,0-2.79.15c4.22.92,8.46,1.8,12.65,2.77,5.94,1.37,12,2.67,17.75,4.25,5.11,1.39,10.07,3,14.92,4.76a9.27,9.27,0,0,1,4.15,2.77c3.1,4.36,8.3,7.36,14.67,9.72a4.4,4.4,0,0,1,2.1,1.43l-12.74-2.51a5.6,5.6,0,0,0-.89-2c-5-5.11-12.47-8.39-21.27-10.47-8.13-1.93-16.28-3.84-24.58-5.43-7.12-1.37-14.44-2.31-21.69-3.4-2.12-.31-4.28-.5-6.43-.7a14.36,14.36,0,0,0-2.09.23L99,127.69c5.44.86,11,1.56,16.3,2.61,6.2,1.23,12.34,2.63,18.32,4.23,1.61.42,2.7,1.76,3.8,2.78,3.61,3.33,8.49,5.65,14.32,7.25a15.23,15.23,0,0,1,3.26,1.31c-5,0-9.71-1.87-14.8-1.31l-.12.41,17.07,2.16,0,.56c-1.79,0-3.59.06-5.37,0a38.06,38.06,0,0,0-20,4.18c-1.83,1-5,1.06-7.62,1.34-5.3.56-10.64,1-16,1.44-3.32.31-6.65.62-10,1-2.87.31-5.71.69-8.56,1l0,.45c1.3-.05,2.63,0,3.92-.16,4.48-.42,8.94-.93,13.42-1.32,5.5-.49,11-1,16.54-1.32,4.7-.24,9.44-.26,14.16-.2,6.51.08,13,.21,19.35-1,3.6-.66,7-1.62,10.57-2.44.07-.16.13-.31.2-.46l-4.43-1.59c3.1-.53,5.18.81,7.6,1.17s5,.77,7.51,1.25,4.95,1.13,7.95,1.82c-3.88-.18-7.19-.35-10.5-.48-7.21-.27-13.64.89-19.11,4a7.19,7.19,0,0,1-2.94.68c-10,.34-20.07.56-30.1,1A122.06,122.06,0,0,0,111,159.38c.88.05,1.77.17,2.65.14,10.45-.36,20.94-.52,31.34-1.2,7.62-.5,15,.25,22.4.79a76.84,76.84,0,0,0,23.37-1.7l5.49-1.28-3.61-1.7.15-.25L212.39,159l-.13.32c-2.41-.24-4.83-.48-7.23-.74-8.27-.91-15.87,0-22.77,3.11a10.74,10.74,0,0,1-4.15.81c-9.3-.07-18.59-.41-27.88-.34-7.65.05-15.29.53-22.93.82l0,.46h6.36q22.46.06,44.89.17a34.84,34.84,0,0,1,4.17.49c7.27,1,14.55,1.92,22,1.72a94.44,94.44,0,0,0,17.71-2.4c.57-.13.86-.76,1.47-1.33l18,5c7.09,2,14.16,4,21.27,6,3,.82,6,1.65,9.07,2.46-5,1.24-10.12,2.36-15.38,3.23-6.4,1.06-12.82,2.13-19.31,2.92-4.87.6-9.87.75-14.81,1.12a176.58,176.58,0,0,1-27.31.09c-8-.63-16.07-1.21-24.06-2-4.65-.44-9.24-1.16-13.83-1.83-6.05-.9-12.08-1.86-18.1-2.82-5.37-.86-10.77-1.67-16.08-2.66-6.11-1.13-12.17-2.38-18.19-3.69-6.57-1.43-13.09-3-19.61-4.5-4.21-1-8.37-2.07-12.53-3.1L71,164.14c1.09.37,1.91.71,2.8,1,1.7.46,3.41.88,5.14,1.28,6.21,1.45,12.39,2.94,18.64,4.31,5.79,1.27,11.62,2.45,17.47,3.59,5,1,10,1.9,15,2.71,5.85,1,11.77,1.76,17.66,2.61,6.81,1,13.58,2.09,20.44,2.86,7.22.8,14.54,1.23,21.8,1.89,13.51,1.21,27,.55,40.44-.35,2.84-.19,5.68-.49,8.47-.87,4.76-.65,9.53-1.31,14.22-2.12s9.51-1.67,14.1-2.77c2.63-.64,5.24-1.31,7.84-2,2.6.68,5.21,1.35,7.84,2,4.59,1.1,9.35,2,14.1,2.77s9.46,1.47,14.22,2.12c2.79.38,5.63.68,8.47.87,13.46.9,26.93,1.56,40.44.35,7.26-.66,14.58-1.09,21.8-1.89,6.86-.77,13.63-1.88,20.44-2.86,5.89-.85,11.81-1.66,17.66-2.61,5-.81,10-1.75,15-2.71,5.85-1.14,11.68-2.32,17.47-3.59,6.25-1.37,12.43-2.86,18.64-4.31,1.73-.4,3.44-.82,5.14-1.28.89-.24,1.71-.58,2.8-1L477,162.3C472.83,163.33,468.67,164.41,464.46,165.4ZM108,144.48a17.78,17.78,0,0,1,2.34-.59l-1.09-.74a44.84,44.84,0,0,0-14.87-.36c-5,.71-9.75,1.64-13,4.11-2.61,2-6,2.51-9.48,3.2-6,1.19-12.07,2.44-18.1,3.66a10.35,10.35,0,0,0-3.07,1,13.69,13.69,0,0,0,2.4,0c4.87-.91,9.68-2,14.59-2.8,5.58-.93,11.19-2,16.89-2.4A74,74,0,0,0,108,144.48Zm-21.58,8.91c5.1-.64,10.35-.92,15.3-1.85,4.62-.86,9.2-.48,13.79-.62a74.32,74.32,0,0,0,22.24-4.14c.36-.12.74-.48.7-.71s-.5-.58-.88-.65c-9.46-1.7-18.71-1.78-27.47,1.53a6.43,6.43,0,0,0-1.78.88c-2.78,2.33-6.83,2.7-11,3.1s-8,1-12,1.65c-5,.78-10,1.66-15,2.5l.11.54c2.66-.32,5.34-.6,8-1S83.69,153.73,86.39,153.39Zm-26.87-4a55,55,0,0,0,19-5.57c.49-.26.69-.75,1-1.13a9.67,9.67,0,0,0-1.73-.48,34.55,34.55,0,0,1-4-.48l6.18-1.21a42.61,42.61,0,0,0-13.83-3.87c-9.34-1-18.68.24-28,.1-5.15-.08-10.33.63-15.49,1l0,.4c.74,0,1.48.1,2.21.08,7.33-.21,14.65-.46,22-.63a7.39,7.39,0,0,1,3,.53,40.31,40.31,0,0,0,17,3.43c.72,0,1.43.11,2.14.16L69,142c-2,.55-4,1.13-6.11,1.64a27,27,0,0,0-9.92,4.7c-1.69,1.23-4.68,1.84-7.23,2.52-5.57,1.49-11.23,2.84-16.86,4.25.08.18.16.35.23.53,1.77-.33,3.59-.58,5.3-1,6-1.44,11.91-3,17.94-4.37C54.62,149.73,57.12,149.64,59.52,149.34Zm62.87-6.67,0-.27h-8.35l0,.27ZM34,146.39c8.53,1.49,15.95.37,22.3-3.51.1-.06.09-.19.2-.44a32.33,32.33,0,0,0-15.15-.62c-3,.61-5.54,1.93-8.42,2.75-2.25.64-4.68,1-7.05,1.49-6.52,1.28-13.06,2.53-19.58,3.81-2.1.41-4.17.89-6.25,1.34l.21.49c2.24-.38,4.5-.72,6.73-1.12,3.76-.69,7.5-1.43,11.26-2.12,3.92-.72,7.85-1.46,11.82-2.08A13,13,0,0,1,34,146.39ZM120.47,59a27.76,27.76,0,0,0-9.89-6.32l-1-.83c0-.44.39-.77,1.17-1l1.82-1a90.21,90.21,0,0,0,13.64-10.31q9.48-9.15,9.47-16,0-5.66-6.15-13.3-3.66-4.49-11.88-7.4T96,0Q82.48,0,61.87,6.48A137.56,137.56,0,0,0,25.13,24Q9,35.09,9,46.22q0,3.66,3.91,8.56a12.11,12.11,0,0,0,9.89,4.9q6,0,16.71-7.06A54.24,54.24,0,0,0,56.38,35.41a1.45,1.45,0,0,0-1.25-.83c-.49,0-1.63.64-3.4,1.91S45,40.32,36.85,44.14s-14,5.74-17.54,5.74c-.56,0-.83-.34-.83-1s1.33-2.22,4-4.66A82.35,82.35,0,0,1,34.6,35.58,161.36,161.36,0,0,1,53,26,132.18,132.18,0,0,1,77.58,18.2,132.28,132.28,0,0,1,106.76,15Q130,15,130,20.78q0,5.32-12.22,13.47a162,162,0,0,1-25.19,13.8Q79.66,53.71,76,53.7c-.33,0-.5-.08-.5-.25a2.57,2.57,0,0,1,.33-.91L99.27,27.27a2.47,2.47,0,0,0,1.5-2.17A7.82,7.82,0,0,0,99,21.86a3.75,3.75,0,0,0-2.75-1.08q-3.66,0-31.42,26.44T33.27,82L30,86.62A85.54,85.54,0,0,0,23.3,97.84Q20,104.41,20,107.15c0,1.83.81,4.38,2.41,7.65s3.3,4.9,5.07,4.9c.78,0,1.33-.55,1.67-1.66v.16c.11,0,1.21-2.43,3.32-7.31s3.55-7.32,4.32-7.32c.34,0,.72.28,1.17.84a20.28,20.28,0,0,0,6.32,6.48,20.73,20.73,0,0,0,5.65,2.58,26.71,26.71,0,0,0,7.9,1.08q4.39,0,14.71-3.16a182,182,0,0,0,22.11-8.56,68.24,68.24,0,0,0,20.53-14.3q8.73-8.9,8.73-18.7Q123.88,62.68,120.47,59ZM103.1,79.72A128.09,128.09,0,0,1,73.17,96.18q-17.3,6.9-29.76,6.9h-2q-2.49,0-3.33-1.5v-.17L66.86,63A3.24,3.24,0,0,1,69,61.85a1.32,1.32,0,0,1,1.24.91,7.46,7.46,0,0,0,1.33,1.91,2.92,2.92,0,0,0,2.25,1,38.46,38.46,0,0,0,6.81-1.5q16.13-4.65,26.6-4.65h2.17a12,12,0,0,1,4.24,1.16c1.38.67,2.07,1.56,2.07,2.66Q115.73,70.16,103.1,79.72ZM448.87,93.61a47.35,47.35,0,0,0-13.47-5.13A56.55,56.55,0,0,0,425,87.2c-2.61,0-3.91-.12-3.91-.35,0-.47.93-1.24,2.8-2.33q19.81-11,31.42-21.86T466.94,43A20.86,20.86,0,0,0,464,32.63,22.46,22.46,0,0,0,459.3,27a23.53,23.53,0,0,0-8-4.14,38,38,0,0,0-11.83-1.69,50.66,50.66,0,0,0-22.1,5.36,57.74,57.74,0,0,0-17.84,12.71q-6.71,7.35-6.82,13.52c0,.12,0,.22,0,.34-6.68,5.52-22.47,19.66-33.19,27A9,9,0,0,1,356,81.69c-.62,0-.93-.29-.93-.86q0-3.56,6.13-10.69,2.71-3.14,5.14-5.78t4.92-5.06l2.85-2.78a1.46,1.46,0,0,0,.36-1.07c0-1.24-1.34-2.19-4-2.86a2.27,2.27,0,0,0-1-.28q-4.28,0-12.23,9.24Q335.68,77,313,90.39a10.92,10.92,0,0,1-3.35.86,3,3,0,0,1-1.78-.5,1.44,1.44,0,0,1-.71-1.22q0-4.41,8.84-15.54a196.66,196.66,0,0,1,18.61-20.4q9.76-9.27,12.48-9.41,6.14-.28,22.61-2.07T389,39.9c1.85-.29,2.78-.81,2.78-1.57,0-1-1.05-1.9-3.14-2.57q-6.42-4-20.54-4l-7.27.14c-1.34,0-2-.33-2-1a21.66,21.66,0,0,1,.85-3.42l3.57-5a6.41,6.41,0,0,0,1.14-2.57q0-2.14-5.13-2.14c-3.43,0-5.42.57-6,1.71l-9.85,13.12q-18.83,1.44-33.59,3.57L294,38.47l-1.42.22-1,.14a.58.58,0,0,0-.57.64q0,1.71,4.42,2.57Q296,46.32,315,46.32l9-.29c2,0,3,.29,3,.86s-.43,1.19-1.28,1.85a145.58,145.58,0,0,0-17.41,18l-4.77,3.59q-10,7.64-16.12,11.77A73.7,73.7,0,0,1,277,88.25q-4.35,2-6,2c-1.09,0-1.64-.43-1.64-1.29a22.67,22.67,0,0,1,.86-5.7,13,13,0,0,1,1.56-2.78c.76-1.09,1.45-2.07,2.07-2.93s1.64-2.09,3.07-3.7l3.85-4.35q1.71-1.94,5.21-5.71t6.2-6.78a2.86,2.86,0,0,0,.57-1.85,2.12,2.12,0,0,0-1.43-1.85l-4-1.14a3.61,3.61,0,0,0-1.78-.29,6.23,6.23,0,0,0-3.35,1.43Q271.49,62,255,73.56l-.71.43c-.1,0-.14-.1-.14-.29A12.07,12.07,0,0,1,256,71.14l10.7-14.84a3.44,3.44,0,0,0,.71-2c0-.94-.88-1.8-2.64-2.56a11.34,11.34,0,0,0-3.78-1.14c-1,0-2.45,1.33-4.2,4-.05.07-.1.14-.14.21l-.08-.07q-25.53,19-46.78,30.38a6.82,6.82,0,0,1-2.35.86c-.43,0-.65-.24-.65-.71q0-4.58,20.12-23.82,6.69-6.42,6.7-7.42,0-2.43-6.85-2.43-3.56,0-4.28,2.57Q219.45,57.88,209,66T190.34,79.69c-2,1.24-3.37,1.86-4.13,1.86s-1.15-.33-1.15-1,.6-2,1.79-4A44.06,44.06,0,0,1,193,69.07q4.35-4.5,7.2-7.35c1.9-1.9,2.86-3.33,2.86-4.28a3.39,3.39,0,0,0-1.29-2.57,4.17,4.17,0,0,0-2.85-1.14q-4.28.15-14.26,10.7c-.81.85-1.59,1.7-2.34,2.56-1.7,1.05-3.45,2.1-5.29,3.15Q168.52,75,164.53,75q8.13-12.42,8.13-20.4A5.66,5.66,0,0,0,170.37,50a4.43,4.43,0,0,0-3.28-1.79,4.71,4.71,0,0,0-2.49.72,2.41,2.41,0,0,1-1.5.57,2.51,2.51,0,0,1-1.28-.72,3.16,3.16,0,0,0-2.14-.64,63.72,63.72,0,0,0-27.25,19.19q-10.83,13-10.84,22.46a11.45,11.45,0,0,0,1.15,5.42q2,4.28,9.69,5.42,11.56,0,27.68-18.68a16.94,16.94,0,0,0,2.56.28c3,0,6.41-1,10.37-2.91a65.17,65.17,0,0,0-3.38,6.19,18.93,18.93,0,0,0-2.14,7.7q0,5.28,5.71,5.28a11.64,11.64,0,0,0,5.49-2,41.49,41.49,0,0,0,6-4.28c1.76-1.51,4-3.54,6.63-6.06s4.23-3.78,4.71-3.78.85.1.85.29a.94.94,0,0,1-.14.5,3.3,3.3,0,0,0-.28.5q-.15.28-.36.78c-.14.34-.67,1.55-1.57,3.64a13.29,13.29,0,0,0-1.36,4.71c0,5,1.62,7.56,4.85,7.56a20.57,20.57,0,0,0,5.57-.72q8-2.43,24.81-16,6.42-5.14,13.84-11.41c3-2.51,5.33-4.54,7.15-6.12a49.34,49.34,0,0,1-6.29,8.11q-4.29,6.14-14.84,15.84a4.76,4.76,0,0,0-.71,2.56c0,2.86,1.57,4.28,4.7,4.28a5.25,5.25,0,0,0,2.86-.71Q242,92.67,266.79,72c.57-.47.86-.64.86-.5a6.21,6.21,0,0,1-.86,1.5l-6.13,8.41q-3.42,4.86-3.42,9.28,0,11.68,11,11.69,5.7,0,20-11.12,5.17-4,9.39-7.45a17.45,17.45,0,0,0-1.48,6.31q0,6.14,2.93,9.69c1.95,2.38,4.08,3.57,6.42,3.57a23.07,23.07,0,0,0,6.06-.71q7.13-2.28,25.1-16.83,3.68-2.89,7.6-6.22-4,7.11-4,11.35c0,3.62,1.28,5.42,3.85,5.42q6,0,16.68-10l2.71-2.14c.19,0,.27.21.22.64s-3.09,4.26-9.13,11.48-9.53,10.89-10.48,11l-3-.42q-7,.86-16.54,6.2a67.46,67.46,0,0,0-17.26,13.91q-7.71,8.55-7.7,16.54a6.27,6.27,0,0,0,2.85,5.42,11.17,11.17,0,0,0,6.56,2,26.81,26.81,0,0,0,14.26-4.21q6.86-4.2,14.69-13.33t15.41-19.4c16-21.2,28.74-38.94,41.09-53.25a11.57,11.57,0,0,0,2.29,3.29,15.26,15.26,0,0,0,3.85,2.51,9.36,9.36,0,0,0,3.73,1.11q8,0,19.12-8.63T434.53,43c0-.31-.24-.62-.7-.93-.47,0-1.4.85-2.8,2.56q-5.71,6.54-15.91,11t-14.64,4.61q-1.86,0-1.86-1.29,0-1.86,3.15-5.13a80,80,0,0,1,13.11-10.66,73.07,73.07,0,0,1,12.19-6.59,75.68,75.68,0,0,1,11.36-3.5,47.9,47.9,0,0,1,10.32-1.4q11.78,0,11.78,5.71,0,6.89-9.56,16.33a123.8,123.8,0,0,1-21.4,16.84Q417.74,78,407.89,83.23t-11.14,5.25q-11.53,1.17-11.54,4.78,0,3.15,8.4,8.74a3.81,3.81,0,0,0,1-.11,98.71,98.71,0,0,1,21.75-2.8,164.43,164.43,0,0,1,20.23,1.34q10.72,1.33,17,2.68c4.16.9,6.37,1.34,6.65,1.34s.4-.11.4-.35a1,1,0,0,0-.35-.7A35.18,35.18,0,0,0,448.87,93.61ZM144.7,85.54q-6.7,6-11.27,6c-.47,0-.71-.38-.71-1.14q0-3.42,5.42-12.55A48.74,48.74,0,0,1,146,68.28a27.1,27.1,0,0,1,2.07,3.78,17,17,0,0,0,3.64,5.21Q151.41,79.55,144.7,85.54Zm16.76-21.25q-3.08,5.85-5.49,5.85c-.29,0-.71-.43-1.28-1.29a4.23,4.23,0,0,1-.86-1.71q0-1.71,4.49-6.13t5.92-4.42c.19,0,.29.31.29.92S163.5,60.39,161.46,64.29Zm179.36,47.78-6,7.42A196.75,196.75,0,0,1,320.42,135Q312,143.17,307,144.73q-.57,0-.57-.42,0-3.44,6.63-11.7a104.77,104.77,0,0,1,15.12-15.26q8.49-7,13.05-7c.29,0,.43.09.43.28A4.11,4.11,0,0,1,340.82,112.07ZM538,26a13.62,13.62,0,0,0-5.6-4.2A33,33,0,0,0,519.37,19a60,60,0,0,0-20.57,3.44A49.56,49.56,0,0,0,483,31.35Q469.81,43,464.58,56.3q-5.25,13.07-5.25,19.47l.12,2.8q.23,6.3,4.43,14.81a17.29,17.29,0,0,0,6.35,6.76,19,19,0,0,0,10.44,2.8q28.56,0,43.37-49.79A49.78,49.78,0,0,0,535.64,43q4.61-5.66,4.6-9.91A11,11,0,0,0,538,26ZM520.42,39.16q-10,8.75-12.35,8.75a.11.11,0,0,1-.12-.12c0-.39.77-1.2,2.33-2.45,2.18-1.4,3.26-2.54,3.26-3.44s-.21-1.34-.64-1.34-.91.39-1.45,1.17q-4.32,3.74-13.53,7.69c-1.55.86-2.33,1.79-2.33,2.8a4,4,0,0,0,1.22,2.8,9,9,0,0,0,2.69,2,24.9,24.9,0,0,0,4,1.4,16.23,16.23,0,0,0,3.21.7q6.41,0,13.87-4.08a130.4,130.4,0,0,1-14.28,18.6,70.47,70.47,0,0,1-13.47,11.6q-11.66,7-19.82,7-3,0-3-4.72a44.59,44.59,0,0,1,2.27-12.24,81.72,81.72,0,0,1,7.12-16.15,94.7,94.7,0,0,1,11.3-16,53.93,53.93,0,0,1,16.09-12.36,43.9,43.9,0,0,1,20.35-4.95c2.25,0,3.38.62,3.38,1.86Q530.45,30.42,520.42,39.16Z"/></svg>
