<svg xmlns="http://www.w3.org/2000/svg" viewBox="0 0 119.65 10.25"><defs><style>.cls-1{fill:#fff;}</style></defs><title>matchmaker</title><g id="Layer_2" data-name="Layer 2"><g id="Compound_Separate" data-name="Compound Separate"><path id="Matchmaker" class="cls-1" d="M0,10.08V.17H2.17l2.59,7c.23.65.41,1.14.52,1.47.12-.37.31-.89.58-1.59L8.47.17h1.94v9.91H9V1.79L5.85,10.08H4.55L1.39,1.64v8.44Zm13.07,0L17.26.17h1.55l4.47,9.91H21.63l-1.27-3H15.8l-1.2,3ZM16.22,6h3.69L18.78,3.27c-.35-.84-.61-1.52-.78-2.06a10.87,10.87,0,0,1-.59,1.89ZM27.6,10.08V1.34H24V.17h8.64V1.34H29v8.74ZM43.44,6.61l1.45.33A4.36,4.36,0,0,1,43.25,9.4a4.75,4.75,0,0,1-2.88.85A5.65,5.65,0,0,1,37.5,9.6a4.18,4.18,0,0,1-1.68-1.89,6.15,6.15,0,0,1-.58-2.66,5.45,5.45,0,0,1,.65-2.7A4.31,4.31,0,0,1,37.75.6,5.82,5.82,0,0,1,40.39,0a4.79,4.79,0,0,1,2.76.76A3.9,3.9,0,0,1,44.7,2.89l-1.42.3a3,3,0,0,0-1.1-1.57,3.15,3.15,0,0,0-1.82-.5,3.81,3.81,0,0,0-2.1.55,3,3,0,0,0-1.19,1.47A5.64,5.64,0,0,0,36.73,5a5.55,5.55,0,0,0,.41,2.21A2.81,2.81,0,0,0,38.4,8.66a3.82,3.82,0,0,0,1.85.47,3.31,3.31,0,0,0,2.06-.64A3.13,3.13,0,0,0,43.44,6.61Zm4.8,3.47V.17h1.44V4.24h5.67V.17h1.44v9.91H55.35V5.41H49.68v4.67Zm12.44,0V.17h2.17l2.58,7c.24.65.42,1.14.52,1.47.13-.37.32-.89.58-1.59L69.15.17h1.94v9.91H69.7V1.79l-3.17,8.29h-1.3L62.07,1.64v8.44Zm13.07,0L77.94.17h1.55L84,10.08H82.31L81,7.08H76.48l-1.2,3ZM76.89,6h3.7L79.45,3.27c-.34-.84-.6-1.52-.77-2.06a11.8,11.8,0,0,1-.59,1.89Zm9.68,4.07V.17H88V5.08L93.44.17h2l-4.57,4,4.77,5.89h-1.9l-3.89-5L88,6.65v3.43Zm11.78,0V.17h7.89V1.34H99.8v3h6V5.54h-6V8.91h6.7v1.17Zm11.69,0V.17h4.84a6.9,6.9,0,0,1,2.21.27,2.36,2.36,0,0,1,1.22.94,2.64,2.64,0,0,1,.45,1.49A2.36,2.36,0,0,1,118,4.65a4,4,0,0,1-2.32.92,3.71,3.71,0,0,1,.87.5,7.3,7.3,0,0,1,1.2,1.31l1.89,2.7h-1.81L116.39,8c-.42-.6-.77-1-1-1.37a3.42,3.42,0,0,0-.73-.66,2.59,2.59,0,0,0-.66-.26,4.8,4.8,0,0,0-.8-.05h-1.68v4.4Zm1.44-5.54h3.1a5.25,5.25,0,0,0,1.55-.18,1.63,1.63,0,0,0,.85-.6,1.53,1.53,0,0,0,.29-.89,1.43,1.43,0,0,0-.56-1.15,2.85,2.85,0,0,0-1.78-.46h-3.45Z"/></g></g></svg>