<svg xmlns="http://www.w3.org/2000/svg" viewBox="0 0 39.44 63.86"><defs><style>.cls-1{fill:#fff;}</style></defs><title>rocket_1</title><g id="Layer_2" data-name="Layer 2"><g id="Compound_Separate" data-name="Compound Separate"><path id="Rocket" class="cls-1" d="M20.76,63.86a2.24,2.24,0,0,1-.55-.07l-7.72-1.94a1.86,1.86,0,0,1-1.33-2.36c.31-2.18,2.91-7.21,3.94-9.14A3.5,3.5,0,0,1,14,48.23c-.12-.63-.21-1.26-.29-1.89-2.08-.06-5.94,1.11-8.5,1.9H5l-.14,0h0c-1.1.34-2,.61-2.51.73A1.83,1.83,0,0,1,.43,48.6a2.64,2.64,0,0,1-.22-2.54h0c.07-.23.14-.45.22-.67l.35-1a21.26,21.26,0,0,1,3-6.24h0c1.21-1.64,4-3.1,8.25-4.38.56-.17,1.15-.34,1.76-.5A91.88,91.88,0,0,1,16,22.83C17.27,17.73,24.2,5,30.63.29A1.88,1.88,0,0,1,32.2.07a2,2,0,0,1,1.32,1c3.5,7.13,3.56,21.65,2.27,26.79a84.91,84.91,0,0,1-3.14,10.12c4,3.75,6.27,6.82,6.6,9.11h0A20.93,20.93,0,0,1,39,54l-.16,1c-.18,1.19-.5,2.45-1.51,2.83a1.84,1.84,0,0,1-1.91-.49c-.43-.37-1.06-1-1.87-1.83-1.92-1.94-5-5.08-7-6-.42.55-.85,1.08-1.3,1.58a4.2,4.2,0,0,1-1.91,1.3c0,2.22,0,7.91-.87,10C22.29,62.85,21.87,63.86,20.76,63.86Zm-7.64-3.92,7.43,1.88.09-.2c.64-1.54.74-6.59.72-9.19l-.84-.21-.61-.16-1.79-.45-.95-.25-.3-.08c-1.22,2.29-3.49,6.8-3.73,8.49A1.49,1.49,0,0,0,13.12,59.94Zm14.61-12c2,1.1,4.58,3.57,7.22,6.24.69.7,1.29,1.3,1.66,1.64a6.13,6.13,0,0,0,.23-1L37,53.68a18.92,18.92,0,0,0,.27-6.35C37,45.64,35.11,43,31.85,39.92A48.57,48.57,0,0,1,27.73,47.9Zm-5.56,2.65c.62.08,1-.09,1.62-.76h0c.48-.53.94-1.11,1.39-1.72l.22-.32A34,34,0,0,0,28,43.49a79.5,79.5,0,0,0,5.86-16.14C35,22.59,35,8.73,31.79,2a.23.23,0,0,0-.11,0c-6,4.46-12.57,16.61-13.78,21.31a85.72,85.72,0,0,0-2.23,11.47c-.08.69-.14,1.42-.2,2.16h0a46.25,46.25,0,0,0,.12,8.35l.1.9c.07.55.16,1.1.26,1.66.16.9.61,1.22,1.75,1.55Zm-20-4.17a4.86,4.86,0,0,0-.19.71c.46-.11,1.18-.33,2-.59l.06,0,.16,0c3.54-1.09,6.91-2.06,9.21-2.08a49.37,49.37,0,0,1,.12-9c-.73.21-1.41.42-2.06.63-3.1,1-5.2,2.14-6.06,3.25l0,0a19.26,19.26,0,0,0-2.77,5.72l-.36,1C2.27,46.18,2.24,46.29,2.21,46.38ZM27.86,22a4.56,4.56,0,0,1-1.16-.15A4.75,4.75,0,1,1,29,12.66h0a4.75,4.75,0,0,1,1.28,8.68A4.67,4.67,0,0,1,27.86,22Zm0-7.51a2.82,2.82,0,0,0-1.41.39,2.75,2.75,0,1,0,2.83,4.72,2.7,2.7,0,0,0,1.25-1.68,2.75,2.75,0,0,0-2-3.34h0A2.57,2.57,0,0,0,27.85,14.51Z"/></g></g></svg>