<svg xmlns="http://www.w3.org/2000/svg" viewBox="0 0 622.43 293.35"><path fill="rgba(255,245,245,.65)" stroke="rbga(10,0,0,.65)" d="M598.62,143.27C596.2,119.66,576.11,102,553,103.48a41.66,41.66,0,0,0-5.75.79c4.36-32.95-20-65.66-56.86-74.77C463,22.75,436.09,30.75,419.6,48.12a38.55,38.55,0,0,0-57.84,3.29,27,27,0,0,0-24.36-14v0C336,15.4,313.64-1.08,287.53.62c-18.44,1.2-33.82,11.15-40.77,24.64a67.18,67.18,0,0,0-37-8c-18.33,1.19-34.29,9.26-44.7,21a27.91,27.91,0,0,0-22.44-8.66c-14.85,1-26.18,12.66-25.3,26.12a21.08,21.08,0,0,0,.51,3.5c-4.94-4.55-14-8.35-23.85-.65-2.49,1.94-6.54,6.66-7.25,9.24A39.86,39.86,0,0,0,65.1,63.15C45.68,64.42,30.5,79.13,29,97.1c-18.1,4.11-30.79,21.82-28.1,41.53a37.48,37.48,0,0,0,14.28,24.63l9.17,5.31a29.3,29.3,0,0,0,27.07,44.22c.62,0,1.23-.11,1.83-.18v.06a30.22,30.22,0,0,0,32.11,28.19c.69-.05,1.36-.12,2-.21a53.08,53.08,0,0,0,92.41,14.08,72.77,72.77,0,0,0,100.14,6,64.07,64.07,0,0,0,102.72-17.67,28.8,28.8,0,0,0,24.92,11.69c1-.07,1.91-.19,2.84-.35,0,.36-.08.71-.1,1.07A34.78,34.78,0,0,0,477,271.56l7.66-8a23,23,0,0,0,22.2-8,44.86,44.86,0,0,0,70.52-54.09,31.13,31.13,0,1,0,21.2-58.23Zm-38,41.43.88-.91c.22.62.45,1.23.71,1.84C561.66,185.3,561.12,185,560.59,184.7Z"/></svg>
