<svg xmlns="http://www.w3.org/2000/svg" viewBox="0 0 197.71 49.15"><path fill="white" d="M12.32,31.94V48.53H0V2.93H14.94q18.59,0,18.59,13.47,0,7.94-7.74,12.26L39.08,48.53h-14L15.44,31.94Zm0-9.27h2.31q6.45,0,6.45-5.7,0-4.71-6.33-4.71H12.32Z"/><path fill="white" d="M57.57,49.15q-8.84,0-13.71-4.69T39,31.09q0-8.94,4.52-13.73t12.92-4.79q8,0,12.33,4.16t4.35,12v5.43H51.3a6.06,6.06,0,0,0,2.17,4.65A8.5,8.5,0,0,0,59,40.48a26.5,26.5,0,0,0,5.91-.61,28.72,28.72,0,0,0,5.85-2.07v8.76a21.31,21.31,0,0,1-5.92,2A41.45,41.45,0,0,1,57.57,49.15Zm-.72-28.29a5.1,5.1,0,0,0-3.6,1.36,6.38,6.38,0,0,0-1.7,4.26H62a6.1,6.1,0,0,0-1.45-4.09A4.8,4.8,0,0,0,56.85,20.86Z"/><path fill="white" d="M90.19,48.53H78V0h12.2Z"/><path fill="white" d="M119.69,48.53l-2.34-4.68h-.25a13.9,13.9,0,0,1-5,4.18,16.58,16.58,0,0,1-6.61,1.12,10.38,10.38,0,0,1-7.86-3c-1.92-2-2.87-4.8-2.87-8.42q0-5.66,3.93-8.41t11.38-3.1l5.89-.19v-.5q0-4.37-4.3-4.36-3.87,0-9.82,2.62l-3.53-8q6.18-3.18,15.6-3.18,6.8,0,10.52,3.37t3.73,9.42V48.53Zm-9-8a5.47,5.47,0,0,0,3.79-1.4A4.65,4.65,0,0,0,116,35.49V32.75l-2.81.12c-4,.15-6,1.62-6,4.43Q107.18,40.54,110.64,40.54Z"/><path fill="white" d="M141.92,30.5,131.13,13.19H145l5.36,9.92,5.49-9.92h13.88L158.64,30.5l11.51,18H156.3l-6-10.73-5.92,10.73H132.54Z"/><path fill="white" d="M194,12.57a17.37,17.37,0,0,1,3,.25l.68.12-1.09,11.51a18,18,0,0,0-4.15-.37q-4,0-5.8,1.82a7.19,7.19,0,0,0-1.81,5.26V48.53H172.67V13.19h9.07l1.91,5.65h.59a12.21,12.21,0,0,1,4.26-4.54A10.21,10.21,0,0,1,194,12.57Z"/></svg>
