<svg xmlns="http://www.w3.org/2000/svg" viewBox="0 0 267.95 130.95"><path fill="white" d="M118.83,53.67v42q0,18.16,14.34,18.17t14.34-18.17v-42H164.4V96a47.12,47.12,0,0,1-2.18,15.16,25.48,25.48,0,0,1-7.28,10.28q-8.55,7.44-21.77,7.43t-21.69-7.43a25.79,25.79,0,0,1-7.43-10.28Q102,106.07,102,96V53.67ZM192.76,0V126.78H175.87V0Zm35,69.43v57.35H210.84V69.43h-7.21V53.67h7.21V26.87h16.89v26.8h13.13V69.43ZM246,23.27a10.5,10.5,0,0,1,3.23-7.66,11,11,0,0,1,15.54,0A10.41,10.41,0,0,1,268,23.34a10.64,10.64,0,0,1-3.23,7.81A10.4,10.4,0,0,1,257,34.38a10.64,10.64,0,0,1-7.81-3.23A10.73,10.73,0,0,1,246,23.27Zm19.44,30.4v73.11H248.5V53.67ZM75.9,53.73c10.63,8,17.43,20.18,17.43,33.88A41.16,41.16,0,0,1,86,111Zm-.25,68L70.14,87.22,50.21,131A48.46,48.46,0,0,0,75.65,121.68Zm-29.08-9.9L73.81,52.25a49.48,49.48,0,0,0-53.7-.38Zm-4,19.13L23.26,87.17l-6.07,34.14A48.33,48.33,0,0,0,42.61,130.91ZM18.26,53.13C7.16,61.07,0,73.56,0,87.61a41.07,41.07,0,0,0,7,22.93Z"/></svg>
