<svg xmlns="http://www.w3.org/2000/svg" viewBox="0 0 237.37 63.86"><path fill="white" d="M0,32.44l1.36-.11a2.68,2.68,0,0,0,.45,1.22,2.39,2.39,0,0,0,1.1.77,4.44,4.44,0,0,0,1.67.3A4.3,4.3,0,0,0,6,34.39,1.93,1.93,0,0,0,7,33.78a1.31,1.31,0,0,0,.31-.85A1.24,1.24,0,0,0,7,32.12a2.29,2.29,0,0,0-1-.59c-.29-.1-.94-.26-1.94-.48A10.57,10.57,0,0,1,2,30.43,2.89,2.89,0,0,1,.8,29.51a2.09,2.09,0,0,1-.38-1.24,2.31,2.31,0,0,1,.47-1.4,2.87,2.87,0,0,1,1.37-1,5.74,5.74,0,0,1,2-.34,5.89,5.89,0,0,1,2.14.36,3,3,0,0,1,1.42,1,2.87,2.87,0,0,1,.54,1.56L7,28.6a1.94,1.94,0,0,0-.75-1.42,3.15,3.15,0,0,0-1.9-.48,3.2,3.2,0,0,0-1.91.44,1.27,1.27,0,0,0-.6,1.05,1.1,1.1,0,0,0,.42.88,6.2,6.2,0,0,0,2.18.7,15.27,15.27,0,0,1,2.41.63,3.27,3.27,0,0,1,1.41,1,2.29,2.29,0,0,1,.46,1.41,2.56,2.56,0,0,1-.5,1.49,3.31,3.31,0,0,1-1.44,1.09,5.57,5.57,0,0,1-2.1.38,6.86,6.86,0,0,1-2.48-.39A3.37,3.37,0,0,1,.6,34.22,3.12,3.12,0,0,1,0,32.44Zm15,3.19V26.88h-3.6V25.71H20v1.17H16.4v8.75Zm5.73,0,4.19-9.92h1.55l4.47,9.92H29.25l-1.27-3H23.42l-1.2,3Zm3.15-4.08h3.69L26.4,28.81c-.35-.84-.61-1.52-.78-2.06a11.24,11.24,0,0,1-.59,1.9Zm9.76,4.08V25.71h4.84a6.9,6.9,0,0,1,2.21.27,2.42,2.42,0,0,1,1.22.94,2.65,2.65,0,0,1,.45,1.5,2.39,2.39,0,0,1-.75,1.78,4.08,4.08,0,0,1-2.32.92,3.73,3.73,0,0,1,.87.49,7.05,7.05,0,0,1,1.2,1.32l1.89,2.7H41.4L40,33.56c-.42-.59-.77-1.05-1-1.36a3.26,3.26,0,0,0-.73-.67,2.59,2.59,0,0,0-.66-.26,4.8,4.8,0,0,0-.8-.05H35v4.41ZM35,30.09h3.11a4.83,4.83,0,0,0,1.54-.19,1.58,1.58,0,0,0,.85-.59,1.48,1.48,0,0,0,.29-.89,1.41,1.41,0,0,0-.56-1.16,2.82,2.82,0,0,0-1.77-.45H35Zm13.57,5.54V26.88H45V25.71h8.65v1.17H50.05v8.75Zm15.22-9.92h1.44v5.73a6.13,6.13,0,0,1-.37,2.37,3,3,0,0,1-1.35,1.43,5.06,5.06,0,0,1-2.54.55,5.67,5.67,0,0,1-2.51-.48,2.81,2.81,0,0,1-1.39-1.39,6,6,0,0,1-.42-2.48V25.71h1.44v5.72a5.05,5.05,0,0,0,.27,1.91,1.89,1.89,0,0,0,.91.94,3.38,3.38,0,0,0,1.57.33A3.19,3.19,0,0,0,63.15,34a3.5,3.5,0,0,0,.68-2.52Zm5.37,9.92V25.71h4.11a9.91,9.91,0,0,1,1.66.1,3.41,3.41,0,0,1,1.35.46,2.53,2.53,0,0,1,.87,1,2.71,2.71,0,0,1,.34,1.35,2.9,2.9,0,0,1-.89,2.14,4.55,4.55,0,0,1-3.2.88h-2.8v4Zm1.44-5.2h2.82a3.17,3.17,0,0,0,2-.48A1.61,1.61,0,0,0,76,28.62a1.7,1.7,0,0,0-.35-1.07,1.6,1.6,0,0,0-.91-.58,6.6,6.6,0,0,0-1.35-.09H70.64Zm47.08,5.2V25.71h2.17l2.59,7c.23.65.41,1.14.52,1.47.12-.36.31-.89.58-1.59l2.61-6.9h1.94v9.92h-1.39v-8.3l-3.17,8.3h-1.3l-3.16-8.44v8.44Zm13.07,0L135,25.71h1.55L141,35.63h-1.65l-1.27-3h-4.56l-1.2,3Zm3.15-4.08h3.69l-1.13-2.74c-.35-.84-.61-1.52-.78-2.06a11.24,11.24,0,0,1-.59,1.9Zm11.38,4.08V26.88h-3.59V25.71h8.64v1.17h-3.61v8.75Zm15.84-3.48,1.45.33A4.42,4.42,0,0,1,161,35a4.81,4.81,0,0,1-2.88.84,5.55,5.55,0,0,1-2.87-.65,4.08,4.08,0,0,1-1.68-1.89,6.12,6.12,0,0,1-.58-2.66,5.45,5.45,0,0,1,.65-2.7,4.31,4.31,0,0,1,1.86-1.75,5.82,5.82,0,0,1,2.64-.6,4.87,4.87,0,0,1,2.76.76,3.93,3.93,0,0,1,1.55,2.13l-1.42.3a3,3,0,0,0-1.1-1.57,3.15,3.15,0,0,0-1.82-.49,3.81,3.81,0,0,0-2.1.54,3,3,0,0,0-1.19,1.47,5.42,5.42,0,0,0-.34,1.91,5.59,5.59,0,0,0,.41,2.21,2.89,2.89,0,0,0,1.26,1.41,3.82,3.82,0,0,0,1.85.46A3.31,3.31,0,0,0,160,34,3.15,3.15,0,0,0,161.16,32.15Zm4.8,3.48V25.71h1.44v4.07h5.67V25.71h1.44v9.92h-1.44V31H167.4v4.68Zm12.44,0V25.71h2.17l2.58,7c.24.65.41,1.14.52,1.47.13-.36.32-.89.58-1.59l2.62-6.9h1.94v9.92h-1.39v-8.3l-3.17,8.3h-1.31l-3.15-8.44v8.44Zm13.06,0,4.19-9.92h1.56l4.47,9.92H200l-1.27-3H194.2l-1.2,3Zm3.15-4.08h3.7l-1.14-2.74c-.34-.84-.6-1.52-.77-2.06a12.23,12.23,0,0,1-.59,1.9Zm9.68,4.08V25.71h1.45v4.92l5.42-4.92h2l-4.57,4,4.77,5.9h-1.9l-3.89-5-1.78,1.58v3.44Zm11.78,0V25.71H224v1.17h-6.44v3h6v1.16h-6v3.38h6.7v1.17Zm11.69,0V25.71h4.83a6.93,6.93,0,0,1,2.22.27,2.42,2.42,0,0,1,1.22.94,2.65,2.65,0,0,1,.45,1.5,2.39,2.39,0,0,1-.75,1.78,4.08,4.08,0,0,1-2.32.92,3.73,3.73,0,0,1,.87.49,6.7,6.7,0,0,1,1.19,1.32l1.9,2.7h-1.81l-1.45-2.07c-.42-.59-.77-1.05-1-1.36a3.26,3.26,0,0,0-.73-.67,2.59,2.59,0,0,0-.66-.26,4.8,4.8,0,0,0-.8-.05H229.2v4.41Zm1.44-5.54h3.1a4.89,4.89,0,0,0,1.55-.19,1.62,1.62,0,0,0,.85-.59,1.55,1.55,0,0,0,.29-.89,1.43,1.43,0,0,0-.56-1.16,2.86,2.86,0,0,0-1.78-.45H229.2ZM93.64,63.86a2.22,2.22,0,0,1-.54-.07l-7.72-1.94a1.86,1.86,0,0,1-1.33-2.36c.31-2.18,2.91-7.21,3.94-9.14a3.56,3.56,0,0,1-1.13-2.12c-.11-.63-.2-1.26-.29-1.89-2.15-.06-6.19,1.19-8.74,2h0l-.07,0c-1.1.34-2,.61-2.52.73a1.72,1.72,0,0,1-2.33-1.73,6.07,6.07,0,0,1,.43-2l.35-1a21,21,0,0,1,3-6.25c1.37-1.85,4.74-3.49,10-4.88a91.88,91.88,0,0,1,2.12-10.43C90.16,17.73,97.08,5,103.51.29a1.9,1.9,0,0,1,1.58-.22,2,2,0,0,1,1.32,1c3.49,7.13,3.56,21.65,2.26,26.79a80.82,80.82,0,0,1-3.14,10.12c4,3.76,6.27,6.82,6.61,9.11h0a20.93,20.93,0,0,1-.27,7l-.17,1c-.17,1.19-.49,2.45-1.51,2.83a1.83,1.83,0,0,1-1.9-.49c-.43-.37-1.07-1-1.87-1.83-1.92-1.94-5-5.08-7-6-.42.56-.85,1.08-1.3,1.58h0a4.2,4.2,0,0,1-1.91,1.3c0,2.22,0,7.91-.88,10A2,2,0,0,1,93.64,63.86ZM86,59.94l7.43,1.88.09-.2c.63-1.54.73-6.59.72-9.19-.29-.06-.57-.14-.84-.21l-.62-.16L91,51.61l-1-.25-.3-.08c-1.22,2.29-3.49,6.8-3.73,8.49A1.49,1.49,0,0,0,86,59.94Zm14.61-12c2,1.09,4.58,3.57,7.22,6.24.68.7,1.28,1.3,1.66,1.64a6.13,6.13,0,0,0,.23-1l.16-1.07a19.2,19.2,0,0,0,.27-6.35h0c-.25-1.68-2.16-4.29-5.42-7.41A49.36,49.36,0,0,1,100.62,47.9Zm-5.56,2.65c.62.08,1-.09,1.61-.76a22,22,0,0,0,1.39-1.71l.23-.33a35.14,35.14,0,0,0,2.5-4.11,79.3,79.3,0,0,0,5.94-16.29c1.19-4.76,1.13-18.62-2-25.31l-.12,0C98.61,6.47,92,18.62,90.79,23.32A84.67,84.67,0,0,0,88.57,34.7c-.08.72-.15,1.48-.21,2.25v0a46.25,46.25,0,0,0,.12,8.35l.1.9c.07.55.15,1.1.25,1.66.17.9.62,1.22,1.75,1.55ZM75.71,44.62l-.15.43-.36,1a7.38,7.38,0,0,0-.29,1c.49-.12,1.31-.37,2.24-.66,3.54-1.09,6.9-2.06,9.21-2.08a49.37,49.37,0,0,1,.12-9c-4.28,1.2-7.15,2.57-8.16,3.93l-.26.37A18.64,18.64,0,0,0,75.71,44.62Zm25-22.6a4.69,4.69,0,0,1-1.17-.15,4.75,4.75,0,1,1,3.6-.53A4.7,4.7,0,0,1,100.75,22Zm0-7.51a2.78,2.78,0,1,0,.67.09A2.57,2.57,0,0,0,100.74,14.51Z"/></svg>
