<svg xmlns="http://www.w3.org/2000/svg" viewBox="0 0 299.12 119.2">
  <path fill="white" stroke="rgba(147,13,90,.5)" stroke-width="2px" d="M87.38,38.82c1,.78,2.75,1.17,5.23,1.17A7.08,7.08,0,0,0,96,39.21a7.22,7.22,0,0,0,2.35-2,8.45,8.45,0,0,0,1.35-2.55,8.19,8.19,0,0,0,.45-2.52,4.57,4.57,0,0,0-1.38-3.4c-.92-.9-2.55-1.35-4.87-1.35a7.9,7.9,0,0,0-3.63.78,8.21,8.21,0,0,0-2.56,2,8.43,8.43,0,0,0-1.53,2.68,8.67,8.67,0,0,0-.51,2.85A4.3,4.3,0,0,0,87.38,38.82Z"/>
  <path fill="white" stroke="rgba(147,13,90,.5)" stroke-width="2px" d="M298,69.15a2.63,2.63,0,0,0-.45-1,3.34,3.34,0,0,0-.81-.78,2.1,2.1,0,0,0-1.21-.33,6.19,6.19,0,0,0-.81.06,2.41,2.41,0,0,0-1,.42q-.54.24-2.13,1.2t-4,2.28q-2.38,1.33-5.32,2.8c-2,1-4,1.89-6,2.73A48.14,48.14,0,0,1,270,78.64a23.79,23.79,0,0,1-5.91.81,7.65,7.65,0,0,1-4.15-1,3.91,3.91,0,0,1-1.86-2.73,102.6,102.6,0,0,0,13.61-6,48.87,48.87,0,0,0,8.68-5.82A18.42,18.42,0,0,0,285,58.31,12.28,12.28,0,0,0,286.28,53a8.91,8.91,0,0,0-2.46-6.67c-1.64-1.6-4.13-2.4-7.45-2.4a28.25,28.25,0,0,0-8.92,1.38A32.64,32.64,0,0,0,259.79,49a34.93,34.93,0,0,0-6.28,5.25,38.58,38.58,0,0,0-4.71,6.1,29.68,29.68,0,0,0-3,6.22,21.25,21.25,0,0,0-.67,2.57c-.36.26-.7.53-1.07.79-1.56,1.14-3.13,2.25-4.71,3.31s-3.11,2-4.57,2.82a34.12,34.12,0,0,1-4.08,2,9,9,0,0,1-3.16.75,1.54,1.54,0,0,1-1.38-.54,2.56,2.56,0,0,1-.36-1.44,10.19,10.19,0,0,1,.63-3.27,31.65,31.65,0,0,1,1.29-3.22c1-2.16,2.2-4.71,3.58-7.66s2.86-6,4.44-9.34,3.21-6.65,4.87-10.12,3.28-6.8,4.86-10S248.59,27,250,24.31s2.57-5,3.57-6.91a28.4,28.4,0,0,0,1.3-2.58,5.88,5.88,0,0,0,.51-2.29,3.66,3.66,0,0,0-1.54-3.3,6,6,0,0,0-3.39-1,7.87,7.87,0,0,0-3.69,1,6.69,6.69,0,0,0-2.92,3.3l-18.2,38.75-4,8.47c-.08.15-.14.31-.22.46q-7.43,5.6-12.61,9.36-5.49,4-9.07,6.37a52.15,52.15,0,0,1-5.56,3.33,7.77,7.77,0,0,1-3,1,2.83,2.83,0,0,1-1.8-.45,1.45,1.45,0,0,1-.54-1.17q.06-.54,1.59-2.07t3.78-3.72c1.5-1.47,3.12-3.09,4.84-4.87a70.21,70.21,0,0,0,4.8-5.5,36.34,36.34,0,0,0,3.7-5.61A11.39,11.39,0,0,0,209,51.52a5.67,5.67,0,0,0-1-3.27,8.13,8.13,0,0,0-2.49-2.35,12.51,12.51,0,0,0-3.49-1.41,16.38,16.38,0,0,0-3.93-.48,17.17,17.17,0,0,0-5.77,1,32.45,32.45,0,0,0-5.65,2.65,49.25,49.25,0,0,0-5.34,3.63q-2.6,2-4.81,4.06a7.08,7.08,0,0,0,.39-1.15q.21-.78.39-1.65t.3-1.65a8.42,8.42,0,0,0,.12-1.14,3.41,3.41,0,0,0-1.08-2.73,5.23,5.23,0,0,0-3.48-.94,4,4,0,0,0-2.92,1.42,16.43,16.43,0,0,0-2.43,3.33,39.1,39.1,0,0,0-1.92,3.9c-.56,1.33-1,2.35-1.32,3.07-.14.42-.3.85-.45,1.28l-.63.34Q155.51,65.53,150,69.51t-9.07,6.37a52.15,52.15,0,0,1-5.56,3.33,7.77,7.77,0,0,1-3,1,2.83,2.83,0,0,1-1.8-.45,1.45,1.45,0,0,1-.54-1.17q.06-.54,1.59-2.07t3.78-3.72c1.5-1.47,3.12-3.09,4.84-4.87a70.21,70.21,0,0,0,4.8-5.5,37.08,37.08,0,0,0,3.7-5.61,11.39,11.39,0,0,0,1.47-5.26,5.67,5.67,0,0,0-1-3.27,8.13,8.13,0,0,0-2.49-2.35,12.51,12.51,0,0,0-3.49-1.41,16.38,16.38,0,0,0-3.93-.48,17.17,17.17,0,0,0-5.77,1,32.11,32.11,0,0,0-5.65,2.65,49.25,49.25,0,0,0-5.34,3.63q-2.59,2-4.81,4.06a7.08,7.08,0,0,0,.39-1.15q.21-.78.39-1.65t.3-1.65a8.42,8.42,0,0,0,.12-1.14,3.41,3.41,0,0,0-1.08-2.73,5.23,5.23,0,0,0-3.48-.94,4,4,0,0,0-2.92,1.42,16.43,16.43,0,0,0-2.43,3.33,39.1,39.1,0,0,0-1.92,3.9c-.56,1.33-1,2.35-1.32,3.07-.71,2.1-1.53,4.28-2.45,6.5a4.65,4.65,0,0,0-1.16.83q-.9,1.08-2.25,2.46T97,70.5c-1.07,1-2.2,2-3.4,3A33.32,33.32,0,0,1,90,76.09,23.73,23.73,0,0,1,86.27,78a9.58,9.58,0,0,1-3.51.72,4.35,4.35,0,0,1-2.31-.51A2.32,2.32,0,0,1,79.63,76a10.74,10.74,0,0,1,.58-3.3,36.83,36.83,0,0,1,1.38-3.67q.81-1.86,1.71-3.63c.6-1.18,1.14-2.28,1.62-3.28l1-2.16q.42-.9.87-1.83t1-2c.37-.72.82-1.61,1.39-2.65a3.36,3.36,0,0,0,.39-1.08q.09-.54.15-1.08a4.78,4.78,0,0,0-1.66-3.75,5.67,5.67,0,0,0-3.93-1.48,5.58,5.58,0,0,0-2.7.72,6.56,6.56,0,0,0-2.35,2.41l-2,4.2c-.56,1.12-1.09,2.23-1.59,3.31s-.85,1.88-1,2.4q-.84,2.1-2,4.41t-2.29,4.81a44.89,44.89,0,0,0-1.86,5.14c-.07.25-.13.51-.2.77a25.88,25.88,0,0,1-5.63,3.13,20,20,0,0,1-7.81,1.44h-.84a7.28,7.28,0,0,1-.9-.06,7.13,7.13,0,0,1-4.56-2.4A25.54,25.54,0,0,1,44.34,71a41.75,41.75,0,0,1-3-6.66A45.47,45.47,0,0,1,39.57,58a46.26,46.26,0,0,0,8-2.16,57.17,57.17,0,0,0,8-3.67,50.83,50.83,0,0,0,7.35-5,37.19,37.19,0,0,0,6-6.13A29.76,29.76,0,0,0,73.06,34a21.35,21.35,0,0,0,1.53-8A22.51,22.51,0,0,0,72,15a23,23,0,0,0-6.88-7.78,31.5,31.5,0,0,0-9.94-4.66A43.73,43.73,0,0,0,43.47,1,52.44,52.44,0,0,0,31.64,2.29,54.46,54.46,0,0,0,21.33,5.72a47,47,0,0,0-8.5,4.92,39.58,39.58,0,0,0-6.39,5.8,25.8,25.8,0,0,0-4,6A13.2,13.2,0,0,0,1,28a5.88,5.88,0,0,0,1.5,4.3A6,6,0,0,0,7,33.86a6.46,6.46,0,0,0,3.72-1,11.8,11.8,0,0,0,2.74-2.65,29.14,29.14,0,0,0,2.37-3.72q1.14-2.1,2.55-4.32a29,29,0,0,1,3.37-4.33,19.91,19.91,0,0,1,4.8-3.72,27.55,27.55,0,0,1,6.79-2.65,37.85,37.85,0,0,1,9.4-1,27.3,27.3,0,0,1,8.38,1.14,16.62,16.62,0,0,1,5.77,3.07,11.63,11.63,0,0,1,3.3,4.5,14.4,14.4,0,0,1,1,5.47,19.39,19.39,0,0,1-2,8.29,27.37,27.37,0,0,1-5.5,7.75,29.56,29.56,0,0,1-8.14,5.73,22.26,22.26,0,0,1-9.88,2.26h-.81a4.56,4.56,0,0,1-.75-.06c1-2.2,2-4.36,3-6.46s1.81-4,2.53-5.8S41,33,41.43,31.64a11.22,11.22,0,0,0,.66-3.19,4.36,4.36,0,0,0-.36-1.89,3.25,3.25,0,0,0-.84-1.14,2.75,2.75,0,0,0-1.08-.54,4.32,4.32,0,0,0-1-.15,5.56,5.56,0,0,0-3.52,1.77,32.64,32.64,0,0,0-4.14,4.72q-2.2,2.94-4.51,6.75T22,45.87L4.3,78.31a12,12,0,0,0-1,2.71,11.6,11.6,0,0,0-.36,2.82,8.42,8.42,0,0,0,.27,2,5.62,5.62,0,0,0,.93,2A5,5,0,0,0,6,89.37a7,7,0,0,0,3.12.6,6.54,6.54,0,0,0,4.33-1.69,19.39,19.39,0,0,0,3.72-4.41,40.2,40.2,0,0,0,3.18-6.19c1-2.3,1.89-4.63,2.77-7s1.7-4.65,2.46-6.87,1.5-4.16,2.22-5.8a110.34,110.34,0,0,0,4.39,11.86,54.25,54.25,0,0,0,5.46,9.82,26.38,26.38,0,0,0,6.67,6.67,14.06,14.06,0,0,0,8,2.47,27.34,27.34,0,0,0,11.21-2.68,35.55,35.55,0,0,0,4.66-2.57,7.65,7.65,0,0,0,2.06,3.11,11.13,11.13,0,0,0,7.66,2.5,18.44,18.44,0,0,0,6.79-1.33,36.53,36.53,0,0,0,6.7-3.51q1.82-1.2,3.6-2.6Q92.22,87,89.25,92.34q-3.37,6-6.61,12c-.32.72-.67,1.48-1,2.26s-.75,1.58-1.11,2.4a19.61,19.61,0,0,0-.91,2.49,9,9,0,0,0-.36,2.47c0,1.64.48,2.75,1.42,3.33a6.7,6.7,0,0,0,3.57.87,7.08,7.08,0,0,0,3-.63,8.29,8.29,0,0,0,2.41-1.68,12,12,0,0,0,1.86-2.43,20.54,20.54,0,0,0,1.41-2.95q.18-.54.84-2L95.28,105c.58-1.32,1.21-2.72,1.87-4.2L99,96.54q.9-2,1.59-3.51t1-2q.24-.42.81-1.53l1.29-2.53c.48-.94,1-1.94,1.6-3s1.13-2.09,1.65-3.09,1-1.91,1.44-2.71l1-1.86q1.2-2.1,2.91-4.6t3.79-5A63.74,63.74,0,0,1,120.57,62a43.72,43.72,0,0,1,4.87-4,25.78,25.78,0,0,1,5.05-2.83A13,13,0,0,1,135.44,54a3.55,3.55,0,0,1,2,.42,1.34,1.34,0,0,1,.61,1.15,5.84,5.84,0,0,1-1.45,3.12A49.09,49.09,0,0,1,133,63q-2.19,2.33-4.78,4.9T123.31,73a48.42,48.42,0,0,0-3.91,4.86A10,10,0,0,0,117.54,82a2.67,2.67,0,0,0-.06.51v.45A5.29,5.29,0,0,0,120,87.56,12.57,12.57,0,0,0,127,89.25a26.1,26.1,0,0,0,9.13-1.57,45.11,45.11,0,0,0,8.74-4.41q4.48-2.85,9.52-6.82l3.42-2.66c-1.06,2.18-2.16,4.37-3.33,6.6q-3.09,5.91-6.45,12t-6.61,12c-.32.72-.67,1.48-1,2.26s-.75,1.58-1.11,2.4a19.55,19.55,0,0,0-.9,2.49A9,9,0,0,0,138,114c0,1.64.48,2.75,1.42,3.33a6.7,6.7,0,0,0,3.57.87,7.08,7.08,0,0,0,3-.63,8.29,8.29,0,0,0,2.41-1.68,12,12,0,0,0,1.86-2.43,20.54,20.54,0,0,0,1.41-2.95q.18-.54.84-2l1.53-3.49c.58-1.32,1.21-2.72,1.87-4.2l1.89-4.24q.9-2,1.59-3.51t1-2q.24-.42.81-1.53l1.29-2.53c.49-.94,1-1.94,1.6-3s1.13-2.09,1.65-3.09,1-1.91,1.44-2.71l1-1.86q1.2-2.1,2.91-4.6t3.79-5A63.74,63.74,0,0,1,179.38,62a43.72,43.72,0,0,1,4.87-4,25.78,25.78,0,0,1,5.05-2.83A13,13,0,0,1,194.25,54a3.55,3.55,0,0,1,2,.42,1.34,1.34,0,0,1,.61,1.15,5.84,5.84,0,0,1-1.45,3.12A49.09,49.09,0,0,1,191.76,63q-2.19,2.33-4.78,4.9T182.12,73a48.42,48.42,0,0,0-3.91,4.86A10,10,0,0,0,176.35,82a2.67,2.67,0,0,0-.06.51v.45a5.29,5.29,0,0,0,2.49,4.62,12.59,12.59,0,0,0,7.06,1.69A26.1,26.1,0,0,0,195,87.68a45.11,45.11,0,0,0,8.74-4.41q4.48-2.85,9.53-6.82l2-1.58a22.42,22.42,0,0,0-.82,5.85,12.64,12.64,0,0,0,.42,3.3,6.42,6.42,0,0,0,4,4.5,11,11,0,0,0,4.12.67,20.79,20.79,0,0,0,7.42-1.45,43.63,43.63,0,0,0,7.69-3.87,79.33,79.33,0,0,0,7.63-5.5c0,.1,0,.2.08.3a16.46,16.46,0,0,0,3,5.41,14.41,14.41,0,0,0,4.74,3.72,14.17,14.17,0,0,0,6.4,1.39,34.24,34.24,0,0,0,8.53-1.12,59.3,59.3,0,0,0,8.32-2.79,73.82,73.82,0,0,0,7.57-3.69c2.38-1.34,4.48-2.62,6.28-3.82s3.27-2.24,4.41-3.12,1.82-1.42,2-1.62a3.82,3.82,0,0,0,.9-1.72,8.34,8.34,0,0,0,.12-1.29A3.9,3.9,0,0,0,298,69.15ZM258.26,66A34.05,34.05,0,0,1,260,62.48q1-1.83,2.31-3.69a19.21,19.21,0,0,1,3-3.33,14.14,14.14,0,0,1,3.63-2.38,10.19,10.19,0,0,1,4.27-.9h.54a2.78,2.78,0,0,1,.54.06,2.43,2.43,0,0,1,1.29.66,1.89,1.89,0,0,1,.57,1.44,4.75,4.75,0,0,1-1,2.56,12.69,12.69,0,0,1-3.72,3.15c-.41.24-1.1.7-2.08,1.38s-2.13,1.44-3.45,2.29-2.74,1.72-4.24,2.64-2.95,1.74-4.35,2.46Q257.57,67.68,258.26,66Z"/>
</svg>
