<svg xmlns="http://www.w3.org/2000/svg" viewBox="0 0 122 122"><defs><style>.cls-1{fill:#ce1174;}.cls-2{fill:#fff;}</style></defs><title>ripple-r</title><g id="Layer_2" data-name="Layer 2"><g id="Layer_2-2" data-name="Layer 2"><circle id="bg" class="cls-1" cx="61" cy="61" r="61"/><path id="r" class="cls-2" d="M57.27,61.16a6,6,0,0,0,.86.06h.93a25.47,25.47,0,0,0,11.28-2.57,33.9,33.9,0,0,0,9.3-6.55,31.57,31.57,0,0,0,6.28-8.85,22.13,22.13,0,0,0,2.29-9.47A16.43,16.43,0,0,0,87,27.54a13.28,13.28,0,0,0-3.77-5.15,19.23,19.23,0,0,0-6.59-3.5,31.37,31.37,0,0,0-9.57-1.3,43,43,0,0,0-10.73,1.17,31.32,31.32,0,0,0-7.76,3A22.78,22.78,0,0,0,43.1,26,35.22,35.22,0,0,0,39.26,31c-1.07,1.69-2,3.34-2.91,4.94a33.93,33.93,0,0,1-2.71,4.25,13.3,13.3,0,0,1-3.13,3,7.36,7.36,0,0,1-4.25,1.17,6.91,6.91,0,0,1-5.14-1.75,6.69,6.69,0,0,1-1.72-4.91A15.2,15.2,0,0,1,21,31.31a30.39,30.39,0,0,1,4.6-6.86,45.33,45.33,0,0,1,7.31-6.62,53.27,53.27,0,0,1,9.7-5.63A63.73,63.73,0,0,1,54.39,8.29,60.05,60.05,0,0,1,67.91,6.82,49.83,49.83,0,0,1,81.32,8.6a35.76,35.76,0,0,1,11.35,5.32,26.29,26.29,0,0,1,7.86,8.88,25.75,25.75,0,0,1,2.91,12.49,24.46,24.46,0,0,1-1.74,9.16A34.17,34.17,0,0,1,97,52.61a42.24,42.24,0,0,1-6.9,7,57.46,57.46,0,0,1-8.4,5.66,65.5,65.5,0,0,1-9.16,4.19,53.8,53.8,0,0,1-9.09,2.47,51,51,0,0,0,2,7.24,48,48,0,0,0,3.43,7.61,29.6,29.6,0,0,0,4.49,6.14,8.21,8.21,0,0,0,5.22,2.75,9.43,9.43,0,0,0,1,.06h1a22.77,22.77,0,0,0,8.92-1.64A29.74,29.74,0,0,0,96,90.45a25.75,25.75,0,0,0,5.35-5.28q2.11-2.4,4.32-2.4a3.18,3.18,0,0,1,2.33,1,3.52,3.52,0,0,1,1,2.6A8.84,8.84,0,0,1,108,90a15.42,15.42,0,0,1-3.4,4.35,51.47,51.47,0,0,1-13.82,9.71A31.23,31.23,0,0,1,78,107.12a16,16,0,0,1-9.12-2.81,30,30,0,0,1-7.62-7.62A61.88,61.88,0,0,1,55,85.48a125,125,0,0,1-5-13.55q-1.23,2.8-2.54,6.62T44.65,86.4q-1.51,4-3.16,8a47,47,0,0,1-3.63,7.06,22.32,22.32,0,0,1-4.26,5.05,7.47,7.47,0,0,1-4.94,1.92,8,8,0,0,1-3.57-.69A5.84,5.84,0,0,1,23,106a6.29,6.29,0,0,1-1.06-2.27,9.41,9.41,0,0,1-.31-2.33A13.06,13.06,0,0,1,22,98.2a13.88,13.88,0,0,1,1.16-3.08L43.41,58.07q2.61-4.66,5.25-9t5.15-7.72a37.77,37.77,0,0,1,4.73-5.39,6.37,6.37,0,0,1,4-2,5.22,5.22,0,0,1,1.17.17,3.22,3.22,0,0,1,1.24.62,3.89,3.89,0,0,1,1,1.3,5,5,0,0,1,.41,2.16,12.62,12.62,0,0,1-.76,3.64c-.5,1.55-1.16,3.34-2,5.35s-1.78,4.22-2.88,6.62S58.46,58.64,57.27,61.16Z"/></g></g></svg>