<svg xmlns="http://www.w3.org/2000/svg" viewBox="0 0 1073.5 16">
  <path stroke="rgba(255,255,255,.05)" stroke-width="1px" fill="none" d="M0,0C25.56,0,25.56,16,51.12,16S76.68,0,102.23,0s25.56,16,51.12,16S178.91,0,204.47,0,230,16,255.58,16,281.14,0,306.7,0s25.56,16,51.12,16S383.38,0,408.94,0s25.55,16,51.11,16S485.61,0,511.17,0s25.56,16,51.11,16S587.84,0,613.4,0,639,16,664.53,16,690.08,0,715.64,0s25.57,16,51.13,16S792.33,0,817.88,0,843.44,16,869,16,894.56,0,920.13,0s25.56,16,51.12,16,25.56-16,51.12-16,25.57,16,51.13,16"/>
</svg>
