<svg xmlns="http://www.w3.org/2000/svg" viewBox="0 0 250 85"><path fill="#7f7f7f" d="M31.64,19.09A20,20,0,0,1,38,23.34a20.21,20.21,0,0,1,4.25,6.31,19.41,19.41,0,0,1,1.56,7.75V57.78a6.45,6.45,0,0,1-.49,2.51,6.26,6.26,0,0,1-1.36,2.07,6.36,6.36,0,0,1-2,1.36A6.45,6.45,0,0,1,31,57.78v-21a5.79,5.79,0,0,0-2.15-4.62,7.73,7.73,0,0,0-9.94,0,5.84,5.84,0,0,0-2.1,4.62v21a6.23,6.23,0,0,1-1.9,4.54,6.22,6.22,0,0,1-4.54,1.89,6,6,0,0,1-4.49-1.89A6.27,6.27,0,0,1,4,57.78V37.4a19.24,19.24,0,0,1,1.57-7.75A19.87,19.87,0,0,1,16.13,19.09a19.24,19.24,0,0,1,7.75-1.57A19.29,19.29,0,0,1,31.64,19.09ZM58.54,63A22.67,22.67,0,0,1,46,50.64a23.86,23.86,0,0,1-1.86-9.53A23.85,23.85,0,0,1,46,31.59,22.67,22.67,0,0,1,58.54,19.25a25.09,25.09,0,0,1,18.31,0,23,23,0,0,1,7.51,4.87,22.67,22.67,0,0,1,5.07,7.47,23.85,23.85,0,0,1,1.86,9.52,23.86,23.86,0,0,1-1.86,9.53,22.67,22.67,0,0,1-5.07,7.47A23,23,0,0,1,76.85,63a25.09,25.09,0,0,1-18.31,0Zm-1.2-17.49a11.13,11.13,0,0,0,6,6,11.56,11.56,0,0,0,8.75,0,11.29,11.29,0,0,0,6-14.73,11,11,0,0,0-6-6,11.19,11.19,0,0,0-14.73,6,11.56,11.56,0,0,0,0,8.75ZM104.4,57.78a6.45,6.45,0,0,1-8.91,5.94,6.23,6.23,0,0,1-3.38-3.43,6.46,6.46,0,0,1-.5-2.51V8.69A6.09,6.09,0,0,1,93.47,4.2,6.09,6.09,0,0,1,98,2.34a6.54,6.54,0,0,1,2.52.49,6.34,6.34,0,0,1,3.92,5.86ZM119,63a22.67,22.67,0,0,1-12.58-12.34,23.86,23.86,0,0,1-1.86-9.53,23.85,23.85,0,0,1,1.86-9.52A22.67,22.67,0,0,1,119,19.25a25.09,25.09,0,0,1,18.31,0,23.11,23.11,0,0,1,7.51,4.87,22.82,22.82,0,0,1,5.07,7.47,23.85,23.85,0,0,1,1.86,9.52,23.86,23.86,0,0,1-1.86,9.53,22.82,22.82,0,0,1-5.07,7.47A23.11,23.11,0,0,1,137.35,63,25.09,25.09,0,0,1,119,63Zm-1.2-17.49a11,11,0,0,0,6,6,11.56,11.56,0,0,0,8.75,0,11,11,0,0,0,6-6,11.17,11.17,0,0,0-6-14.73,11.44,11.44,0,0,0-8.75,0,11,11,0,0,0-6,6,11.56,11.56,0,0,0,0,8.75ZM196.59,71.8a22.77,22.77,0,0,1-5.69,6.89A25.2,25.2,0,0,1,183,83,27.91,27.91,0,0,1,174,84.51a27,27,0,0,1-6.23-.79,26.19,26.19,0,0,1-6.19-2.26,17.47,17.47,0,0,1-4.78-3.59A6.9,6.9,0,0,1,154.89,73a6,6,0,0,1,.53-2.51,6.49,6.49,0,0,1,1.45-2.07A6.61,6.61,0,0,1,159,67.1a6.54,6.54,0,0,1,2.52-.49,5.56,5.56,0,0,1,3,.86c.93.58,1.92,1.21,3,1.9a26.42,26.42,0,0,0,3.42,1.9,10.26,10.26,0,0,0,4.33.86,11.3,11.3,0,0,0,3.55-.62,12.2,12.2,0,0,0,3.51-1.81,10.47,10.47,0,0,0,2.68-3A7.76,7.76,0,0,0,186,62.65v-.91c0-1.16-.17-1.73-.5-1.73a2.45,2.45,0,0,0-1.23.66A15.68,15.68,0,0,1,182,62.11a20.36,20.36,0,0,1-3.55,1.44,17,17,0,0,1-5.07.66,18.53,18.53,0,0,1-7.72-1.73,22.07,22.07,0,0,1-6.84-4.83,25,25,0,0,1-4.91-7.3,22.11,22.11,0,0,1-1.9-9.24,22.46,22.46,0,0,1,1.9-9.28,24.45,24.45,0,0,1,4.91-7.3,22.59,22.59,0,0,1,6.84-4.78A18.55,18.55,0,0,1,173.37,18a19.3,19.3,0,0,1,9.28,2.19,15.74,15.74,0,0,1,2.51,1.61c.61.49,1,.8,1.16.91a6.15,6.15,0,0,1,2.14-3.22,5.94,5.94,0,0,1,4-1.49,6.35,6.35,0,0,1,6.36,6.36V62.65A18.9,18.9,0,0,1,196.59,71.8Zm-31-26.52a10.59,10.59,0,0,0,9.82,6.48,10.21,10.21,0,0,0,4.12-.83,10.85,10.85,0,0,0,3.35-2.27A10.79,10.79,0,0,0,185.16,37a10.49,10.49,0,0,0-5.61-5.65,10.21,10.21,0,0,0-4.12-.83,10.65,10.65,0,0,0-7.55,3.09A10.79,10.79,0,0,0,165.61,37a11,11,0,0,0,0,8.33ZM213.44,63a23,23,0,0,1-7.51-4.87,22.67,22.67,0,0,1-5.07-7.47A23.86,23.86,0,0,1,199,41.11a23.85,23.85,0,0,1,1.86-9.52,22.67,22.67,0,0,1,5.07-7.47,23,23,0,0,1,7.51-4.87,25.09,25.09,0,0,1,18.31,0,22.67,22.67,0,0,1,12.58,12.34,23.85,23.85,0,0,1,1.86,9.52,23.86,23.86,0,0,1-1.86,9.53A22.67,22.67,0,0,1,231.75,63a25.09,25.09,0,0,1-18.31,0Zm-1.2-17.49a11,11,0,0,0,2.39,3.58,11.2,11.2,0,0,0,3.59,2.4,11.56,11.56,0,0,0,8.75,0,11.13,11.13,0,0,0,6-6,11.26,11.26,0,0,0-14.73-14.73,11.34,11.34,0,0,0-3.59,2.39,11.38,11.38,0,0,0-2.39,12.34Z"/></svg>
