<svg xmlns="http://www.w3.org/2000/svg" xmlns:xlink="http://www.w3.org/1999/xlink" viewBox="0 0 385.7 385.7">
  <style type="text/css"><![CDATA[
    #circle {
      fill:#fff;
      stroke:#000;
      stroke-miterlimit:10;
      stroke-width:14px;
    }
    #lt, #slash, #gt {
      fill:#ee203b;
      animation: pop 5s;
      transform-origin: center center;
      animation-iteration-count: infinite;
    }
    @keyframes pop {
      0%   { transform: scale(1); }
      5%   { transform: rotate(20deg); }
      7%   { transform: rotate(-20deg); }
      9%   { transform: rotate(20deg); }
      11%  { transform: rotate(0deg); }
      15%  { transform: scale(1.05); }
      20%  { transform: scale(1); }
      100% { transform: scale(1); }
    }
  ]]></style>
  <defs>
    <symbol id="codealong">
      <circle id="circle" cx="192.85" cy="192.85" r="185.85"/>
      <path id="monitor" d="M304.75,92.35H81a12,12,0,0,0-12,12v140.4a12,12,0,0,0,12,12h86.7v22.39H132.08c-6.12,0-11.1,2-11.1,8.1s5,8.1,11.1,8.1H253.62c6.12,0,11.1-2,11.1-8.1s-5-8.1-11.1-8.1H218.05V256.75h86.7a12,12,0,0,0,12-12V104.35A12,12,0,0,0,304.75,92.35Zm-8.59,150H89.54a6.19,6.19,0,0,1-6.19-6.19V112.94a6.19,6.19,0,0,1,6.19-6.19H296.16a6.19,6.19,0,0,1,6.19,6.19V236.16A6.19,6.19,0,0,1,296.16,242.35Z"/>
      <path id="lt" d="M125.7,165.73l37.85,17.6a7.23,7.23,0,0,0,3.1.69,7.37,7.37,0,0,0,7.36-7.36v-.19a7.37,7.37,0,0,0-4.26-6.67l-23.67-11,23.67-11a7.37,7.37,0,0,0,4.26-6.67v-.19a7.37,7.37,0,0,0-10.46-6.67L125.7,151.86a7.4,7.4,0,0,0-4.25,6.67v.53A7.39,7.39,0,0,0,125.7,165.73Z"/>
      <path id="slash" d="M174.35,201.58a7.38,7.38,0,0,0,5.94,3h.19a7.34,7.34,0,0,0,7-5.11l24.93-77.26a7.35,7.35,0,0,0-7-9.6h-.19a7.35,7.35,0,0,0-7,5.11L173.28,195A7.39,7.39,0,0,0,174.35,201.58Z"/>
      <path id="gt" d="M211.69,141.13a7.4,7.4,0,0,0,4.25,6.67l23.68,11-23.68,11a7.38,7.38,0,0,0-4.25,6.67v.19a7.35,7.35,0,0,0,10.46,6.67L260,165.73a7.39,7.39,0,0,0,4.26-6.67v-.53a7.39,7.39,0,0,0-4.26-6.67l-37.85-17.6a7.38,7.38,0,0,0-7,.47,7.33,7.33,0,0,0-3.4,6.2v.2Z"/>
      <g id="text">
        <path d="M105.8,230.25a11.82,11.82,0,0,1-3.54-2.39,11.26,11.26,0,0,1-2.41-3.56,11.31,11.31,0,0,1,0-8.7,11.26,11.26,0,0,1,2.41-3.56,11.82,11.82,0,0,1,3.54-2.39,10.76,10.76,0,0,1,4.32-.87,12,12,0,0,1,5,1,10,10,0,0,1,3.66,2.78,2.38,2.38,0,0,1,.58,1.52,2.19,2.19,0,0,1-.33,1.21,3,3,0,0,1-.81.85,4.31,4.31,0,0,1-1,.51,2.61,2.61,0,0,1-.8.17,2.44,2.44,0,0,1-1.79-1,6,6,0,0,0-.82-.73,6.87,6.87,0,0,0-1-.65,6,6,0,0,0-1.25-.46,5.42,5.42,0,0,0-1.4-.17,5.72,5.72,0,0,0-2.37.49,6.22,6.22,0,0,0-2,1.32,6.15,6.15,0,0,0-1.31,1.94,6.26,6.26,0,0,0,0,4.76,6.12,6.12,0,0,0,3.26,3.25,5.87,5.87,0,0,0,2.37.48,5.77,5.77,0,0,0,2.67-.62,6.49,6.49,0,0,0,1.85-1.37,3,3,0,0,1,.91-.78,2,2,0,0,1,.91-.23,2.53,2.53,0,0,1,1,.23,3.36,3.36,0,0,1,.93.62,3.44,3.44,0,0,1,.69.88,2,2,0,0,1,.28,1,2.41,2.41,0,0,1-.58,1.55,10,10,0,0,1-3.66,2.78,12,12,0,0,1-5,1A10.76,10.76,0,0,1,105.8,230.25Z"/>
        <path d="M127.21,230.25a11.57,11.57,0,0,1-3.54-2.39,11.37,11.37,0,0,1-2.39-3.56,11.19,11.19,0,0,1,0-8.7,11.37,11.37,0,0,1,2.39-3.56,11.57,11.57,0,0,1,3.54-2.39,10.92,10.92,0,0,1,4.34-.87,11,11,0,0,1,4.35.87,11.38,11.38,0,0,1,3.55,2.39,11.2,11.2,0,0,1,2.39,3.56,11.19,11.19,0,0,1,0,8.7,11.2,11.2,0,0,1-2.39,3.56,11.38,11.38,0,0,1-3.55,2.39,11,11,0,0,1-4.35.87A10.92,10.92,0,0,1,127.21,230.25Zm-1.29-7.92a6.15,6.15,0,0,0,3.25,3.25,5.92,5.92,0,0,0,2.38.48,6,6,0,0,0,2.39-.48,6.13,6.13,0,0,0,2-1.31,6.32,6.32,0,0,0,1.31-1.94,6.26,6.26,0,0,0,0-4.76,6.32,6.32,0,0,0-1.31-1.94,6.16,6.16,0,0,0-2-1.32,5.88,5.88,0,0,0-2.39-.49,5.76,5.76,0,0,0-2.38.49,6.07,6.07,0,0,0-1.94,1.32,6.12,6.12,0,0,0-1.31,6.7Z"/>
        <path d="M145.07,230a2.41,2.41,0,0,1-.73-1.78V211.65a2.49,2.49,0,0,1,2.5-2.5h6.77a9.31,9.31,0,0,1,4,.88,10.13,10.13,0,0,1,3.23,2.36,11.31,11.31,0,0,1,2.13,3.44,11.27,11.27,0,0,1,0,8.24,11.31,11.31,0,0,1-2.13,3.44,10.13,10.13,0,0,1-3.23,2.36,9.31,9.31,0,0,1-4,.88h-6.77A2.45,2.45,0,0,1,145.07,230Zm4.31-16.2v12.24H153a5.43,5.43,0,0,0,2.26-.49,5.74,5.74,0,0,0,1.82-1.33,6.36,6.36,0,0,0,1.23-1.93,6.07,6.07,0,0,0,.44-2.33,6.37,6.37,0,0,0-.43-2.35,6.08,6.08,0,0,0-1.21-2,5.73,5.73,0,0,0-1.83-1.35,5.14,5.14,0,0,0-2.28-.5Z"/>
        <path d="M167.89,230.75a2.45,2.45,0,0,1-1.77-.73,2.41,2.41,0,0,1-.73-1.78V211.65a2.49,2.49,0,0,1,2.5-2.5h9.74a2.34,2.34,0,1,1,0,4.67h-7.2v3.68H176a2,2,0,0,1,1.54.64,2.19,2.19,0,0,1,0,3.05,2.07,2.07,0,0,1-1.54.63h-5.53v4.26h7.2a2.34,2.34,0,1,1,0,4.67Z"/>
        <path d="M202.14,226.83H193.3l-1,2.45a2.26,2.26,0,0,1-.92,1.08,2.58,2.58,0,0,1-1.36.39,2.53,2.53,0,0,1-.77-.13,2.4,2.4,0,0,1-1.44-1.21,2.52,2.52,0,0,1,0-2.17l7.66-16.91a2.44,2.44,0,0,1,2.39-1.55,2.38,2.38,0,0,1,2.39,1.55l7.51,16.91a2.49,2.49,0,0,1,.21,1,2.44,2.44,0,0,1-.72,1.79,2.4,2.4,0,0,1-1.76.72,2.52,2.52,0,0,1-1.35-.39,2.21,2.21,0,0,1-.92-1.08Zm-7-4.32h5.24l-2.59-6.3Z"/>
        <path d="M214.32,226.08h6.45a2.28,2.28,0,0,1,1.64.68,2.33,2.33,0,0,1,0,3.31,2.28,2.28,0,0,1-1.64.68h-9A2.45,2.45,0,0,1,210,230a2.41,2.41,0,0,1-.73-1.78V211.65a2.49,2.49,0,0,1,2.5-2.5,2.44,2.44,0,0,1,1.8.73,2.42,2.42,0,0,1,.74,1.77Z"/>
        <path data-name="O" d="M229.11,230.25a11.23,11.23,0,0,1-5.94-5.95,11.31,11.31,0,0,1,0-8.7,11.23,11.23,0,0,1,5.94-5.95,11.26,11.26,0,0,1,8.68,0,11.54,11.54,0,0,1,3.56,2.39,11.37,11.37,0,0,1,2.39,3.56,11.19,11.19,0,0,1,0,8.7,11.37,11.37,0,0,1-2.39,3.56,11.54,11.54,0,0,1-3.56,2.39,11.26,11.26,0,0,1-8.68,0Zm-1.3-7.92a6.32,6.32,0,0,0,1.31,1.94,6.2,6.2,0,0,0,1.95,1.31,5.91,5.91,0,0,0,2.37.48,6,6,0,0,0,2.39-.48,6.1,6.1,0,0,0,3.27-3.25,6.14,6.14,0,0,0,0-4.76,6.16,6.16,0,0,0-3.27-3.26,5.84,5.84,0,0,0-2.39-.49,5.75,5.75,0,0,0-2.37.49,6.22,6.22,0,0,0-1.95,1.32,6.32,6.32,0,0,0-1.31,1.94,6.26,6.26,0,0,0,0,4.76Z"/>
        <path d="M251.27,218.14v10.08a2.45,2.45,0,0,1-.74,1.8,2.48,2.48,0,0,1-1.8.73,2.49,2.49,0,0,1-2.5-2.53V211.65a2.49,2.49,0,0,1,2.5-2.5,2.34,2.34,0,0,1,1.14.27,2.87,2.87,0,0,1,.82.65l9.07,11.64V211.65a2.51,2.51,0,0,1,2.51-2.5,2.44,2.44,0,0,1,1.8.73,2.41,2.41,0,0,1,.73,1.77v16.57a2.44,2.44,0,0,1-.73,1.8,2.48,2.48,0,0,1-1.8.73,2.26,2.26,0,0,1-1.17-.3,3,3,0,0,1-.82-.71Z"/>
        <path d="M286.58,226.3a2.79,2.79,0,0,1-.64,1,11.64,11.64,0,0,1-1.57,1.47,10.78,10.78,0,0,1-1.94,1.21,11.09,11.09,0,0,1-2.29.82,11.19,11.19,0,0,1-6.9-.57,11.82,11.82,0,0,1-3.54-2.39,11.07,11.07,0,0,1-2.4-3.56,11.19,11.19,0,0,1,0-8.7,11.07,11.07,0,0,1,2.4-3.56,11.82,11.82,0,0,1,3.54-2.39,10.83,10.83,0,0,1,4.32-.87,10.24,10.24,0,0,1,4,.73,12.62,12.62,0,0,1,3,1.74,1.84,1.84,0,0,1,.59.75,2.23,2.23,0,0,1,.19.92,2.58,2.58,0,0,1-.23,1.08,2.89,2.89,0,0,1-.61.87,3,3,0,0,1-.82.57,2,2,0,0,1-.9.22,2.27,2.27,0,0,1-1.5-.58,6.34,6.34,0,0,0-1.59-.88,5.68,5.68,0,0,0-2.13-.38,5.75,5.75,0,0,0-2.37.49,6.22,6.22,0,0,0-1.95,1.32,6.32,6.32,0,0,0-1.31,1.94,6.12,6.12,0,0,0-.47,2.38,5.8,5.8,0,0,0,.49,2.38,6.32,6.32,0,0,0,1.31,1.94,6,6,0,0,0,4.3,1.79,6,6,0,0,0,1.43-.18,5.55,5.55,0,0,0,1.32-.47,3.54,3.54,0,0,0,1-.71,1.25,1.25,0,0,0,.39-.89v-1.1h-3.86a2.19,2.19,0,0,1-2.21-2.21,2.2,2.2,0,0,1,.64-1.59,2.12,2.12,0,0,1,1.57-.66h6.37a2.53,2.53,0,0,1,1,.2,2.78,2.78,0,0,1,.8.55,2.53,2.53,0,0,1,.55.81,2.44,2.44,0,0,1,.2,1v4.38A4.23,4.23,0,0,1,286.58,226.3Z"/>
      </g>
    </symbol>
  </defs>
  <use xlink:href="#codealong" />
</svg>
