<svg xmlns="http://www.w3.org/2000/svg" xmlns:xlink="http://www.w3.org/1999/xlink" viewBox="0 0 385.7 385.7">
  <style type="text/css"><![CDATA[
    #bubble-1, #bubble-2, #bubble-3, #bubble-4,
    #bubble-5, #bubble-6, #bubble-7, #bubble-8,
    #bubble-9, #bubble-10, #bubble-11, #bubble-12,
    #bubble-13, #bubble-14, #bubble-15, #bubble-16,
    #bubble-17 {
      animation: growandpop 1.5s;
      transform-origin: bottom center;
      animation-iteration-count: infinite;
    }
    #bubble-1, #bubble-5, #bubble-9, #bubble-13 {
      animation-delay: .5s;
    }
    #bubble-2, #bubble-6, #bubble-10, #bubble-14 {
      animation-delay: .75s;
    }
    #bubble-3, #bubble-7, #bubble-11, #bubble-17 {
      animation-delay: 1s;
    }
    @keyframes growandpop {
      0%   {
        transform: scale(1, 1);
        opacity: 1;
      }
      50% {
        transform: scale(2, 2);
        opacity: .25;
      }
      51% {
        transform: scale(1, 1);
        opacity: 0;
      }
      100% {
        opacity: 1;
      }
    }
  ]]></style>
  <defs>
    <symbol id="lab">
      <circle fill="#fff" stroke="#000" stroke-width="14px" stroke-miterlimit="10" cx="192.85" cy="192.85" r="185.85"/>
      <path fill="#000" d="M304.75,92.35H81a12,12,0,0,0-12,12v140.4a12,12,0,0,0,12,12h86.7v22.39H132.08c-6.12,0-11.1,2-11.1,8.1s5,8.1,11.1,8.1H253.62c6.12,0,11.1-2,11.1-8.1s-5-8.1-11.1-8.1H218.05V256.75h86.7a12,12,0,0,0,12-12V104.35A12,12,0,0,0,304.75,92.35Zm-8.59,150H89.54a6.19,6.19,0,0,1-6.19-6.19V112.94a6.19,6.19,0,0,1,6.19-6.19H296.16a6.19,6.19,0,0,1,6.19,6.19V236.16A6.19,6.19,0,0,1,296.16,242.35Z"/>
      <g class="text">
        <path fill="#000" d="M163.22,224.62h9a3.16,3.16,0,0,1,2.29.94,3.26,3.26,0,0,1,0,4.62,3.16,3.16,0,0,1-2.29.94H159.68a3.48,3.48,0,0,1-3.49-3.49V204.5a3.52,3.52,0,0,1,7,0Z"/>
        <path fill="#000" d="M196.82,225.66H184.5l-1.45,3.42a3.18,3.18,0,0,1-1.28,1.5,3.57,3.57,0,0,1-1.89.54,3.92,3.92,0,0,1-1.09-.18,3.3,3.3,0,0,1-1.12-.6,3.5,3.5,0,0,1-.88-1.08,3.39,3.39,0,0,1-.36-1.63,3.34,3.34,0,0,1,.32-1.4l10.68-23.58a3.43,3.43,0,0,1,3.33-2.16,3.33,3.33,0,0,1,3.33,2.16l10.48,23.58a3.57,3.57,0,0,1,.28,1.4,3.38,3.38,0,0,1-1,2.49,3.33,3.33,0,0,1-2.45,1,3.57,3.57,0,0,1-1.89-.54,3.13,3.13,0,0,1-1.28-1.5Zm-9.75-6h7.3l-3.61-8.79Z"/>
        <path fill="#000" d="M210.68,231.12a3.5,3.5,0,0,1-3.5-3.49V204.5a3.5,3.5,0,0,1,3.5-3.49h9.55a9.86,9.86,0,0,1,3.3.56,8.59,8.59,0,0,1,2.75,1.61,7.67,7.67,0,0,1,1.88,2.57,8.12,8.12,0,0,1,.7,3.45,7.77,7.77,0,0,1-.32,2.41,5.9,5.9,0,0,1-.8,1.67,4.42,4.42,0,0,1-1,1,3.44,3.44,0,0,1-.93.48,7.05,7.05,0,0,1,1.23.74A7.67,7.67,0,0,1,228.5,217a9.28,9.28,0,0,1,1.25,2.33,9.08,9.08,0,0,1,.52,3.23,7.61,7.61,0,0,1-.78,3.45,8.46,8.46,0,0,1-2.07,2.69,9.69,9.69,0,0,1-3,1.77,10.12,10.12,0,0,1-3.58.64Zm3.53-23.61v5.14h5.26a2.57,2.57,0,0,0,0-5.14Zm0,11.17v5.9h6a2.94,2.94,0,0,0,2.93-2.93,2.9,2.9,0,0,0-.86-2.11,2.82,2.82,0,0,0-2.07-.86Z"/>
      </g>
      <g class="test-tube">
        <path fill="#dcdcdc" d="M127.94,115.24h33a4.41,4.41,0,0,1,4.41,4.41v59a18,18,0,0,1-18,18h-5.9a18,18,0,0,1-18-18v-59A4.41,4.41,0,0,1,127.94,115.24Z"/>
        <path fill="#ee203b" d="M145.48,188.94h-2.1c-9.91,0-11.95-8-11.95-18v-29h26v29C157.43,180.9,155.39,188.94,145.48,188.94Z"/>
      </g>
      <g class="test-tube">
        <path fill="#dcdcdc" d="M176.36,115.24h33a4.41,4.41,0,0,1,4.41,4.41v59a18,18,0,0,1-18,18h-5.9a18,18,0,0,1-18-18v-59A4.41,4.41,0,0,1,176.36,115.24Z"/>
        <path fill="#ee203b" d="M193.9,188.94h-2.1c-9.91,0-12-8-12-18v-22h26v22C205.85,180.9,203.81,188.94,193.9,188.94Z"/>
      </g>
      <g class="test-tube">
        <path fill="#dcdcdc" d="M224.78,115.24h33a4.41,4.41,0,0,1,4.41,4.41v59a18,18,0,0,1-18,18h-5.9a18,18,0,0,1-18-18v-59A4.41,4.41,0,0,1,224.78,115.24Z"/>
        <path fill="#ee203b" d="M242.31,188.94h-2.09c-9.92,0-11.95-8-11.95-18v-35h26v35C254.27,180.9,252.23,188.94,242.31,188.94Z"/>
      </g>
    </symbol>
    <symbol id="bubbles">
      <circle id="bubble-1" fill="#fff" cx="143.8" cy="162.23" r="0.94"/>
      <circle id="bubble-2" fill="#fff" cx="148.71" cy="167.89" r="1.88"/>
      <g class="stroke1">
        <circle id="bubble-3" fill="#fff" stroke="#ee203b" stroke-miterlimit="10" cx="185.35" cy="127.85" r="1"/>
        <circle id="bubble-4" fill="#fff" stroke="#ee203b" stroke-miterlimit="10" cx="148.85" cy="128.28" r="2"/>
        <circle id="bubble-5" fill="#fff" stroke="#ee203b" stroke-miterlimit="10" cx="147.91" cy="144.98" r="1.44"/>
        <circle id="bubble-6" fill="#fff" stroke="#ee203b" stroke-miterlimit="10" cx="197.85" cy="156.85" r="2"/>
        <circle id="bubble-7" fill="#fff" stroke="#ee203b" stroke-miterlimit="10" cx="189.66" cy="149.29" r="1.44"/>
        <circle id="bubble-8" fill="#fff" stroke="#ee203b" stroke-miterlimit="10" cx="198.48" cy="126.23" r="1.88"/>
        <circle id="bubble-9" fill="#fff" stroke="#ee203b" stroke-miterlimit="10" cx="235.13" cy="149.32" r="2"/>
        <circle id="bubble-10" fill="#fff" stroke="#ee203b" stroke-miterlimit="10" cx="245.17" cy="154.16" r="1.44"/>
      </g>
      <g class="stroke2">
        <circle id="bubble-11" fill="#fff" stroke="#ee203b" stroke-miterlimit="10" stroke-width="2px" cx="140.62" cy="136.99" r="2.88"/>
        <circle id="bubble-12" fill="#fff" stroke="#ee203b" stroke-miterlimit="10" stroke-width="2px" cx="138.6" cy="152.01" r="3"/>
        <circle id="bubble-13" fill="#fff" stroke="#ee203b" stroke-miterlimit="10" stroke-width="2px" cx="188.23" cy="165.31" r="2.88"/>
        <circle id="bubble-14" fill="#fff" stroke="#ee203b" stroke-miterlimit="10" stroke-width="2px" cx="185.85" cy="139.1" r="4.5"/>
        <circle id="bubble-15" fill="#fff" stroke="#ee203b" stroke-miterlimit="10" stroke-width="2px" cx="198.85" cy="142.1" r="3"/>
        <circle id="bubble-16" fill="#fff" stroke="#ee203b" stroke-miterlimit="10" stroke-width="2px" cx="241.86" cy="138.42" r="2.87"/>
        <circle id="bubble-17" fill="#fff" stroke="#ee203b" stroke-miterlimit="10" stroke-width="2px" cx="238.49" cy="163.72" r="3"/>
      </g>
    </symbol>
  </defs>
  <g>
    <use xlink:href="#lab" />
    <use xlink:href="#bubbles" />
  </g>
</svg>
