<svg xmlns="http://www.w3.org/2000/svg" viewBox="0 0 150 150">
  <defs>
    <style>
      #shield{fill:#ee203b;}#text{fill:#fff;}
    </style>
  </defs>
  <g id="shield">
    <path d="M149.87,67.46H150a75.76,75.76,0,0,0-2.82-14.21l-.12.05c-5.39,2.23-11,.92-12.64-2.92s1.49-8.78,6.87-11l.12,0a75.42,75.42,0,0,0-8-12l-.09.09c-4.12,4.12-9.84,5.07-12.79,2.13s-2-8.67,2.13-12.79l.09-.09a75.42,75.42,0,0,0-12-8s0,.08,0,.12c-2.23,5.38-7.16,8.46-11,6.87S94.46,8.33,96.69,2.94a.61.61,0,0,0,0-.12A75.76,75.76,0,0,0,82.53,0s0,.08,0,.13C82.54,6,79.16,10.68,75,10.68S67.46,6,67.46.13c0,0,0-.09,0-.13A75.76,75.76,0,0,0,53.26,2.82a.61.61,0,0,0,.05.12c2.23,5.39.92,11-2.92,12.64s-8.78-1.49-11-6.87c0,0,0-.08,0-.12a75.42,75.42,0,0,0-12,8.05l.09.09c4.12,4.12,5.07,9.84,2.13,12.79s-8.67,2-12.79-2.13l-.09-.09a75.42,75.42,0,0,0-8,12l.12,0c5.38,2.23,8.46,7.16,6.87,11S8.33,55.54,2.94,53.31l-.12-.05A75.76,75.76,0,0,0,0,67.47H.13C6,67.46,10.68,70.84,10.68,75S6,82.54.13,82.54H0A75.76,75.76,0,0,0,2.82,96.74l.12,0c5.39-2.23,11-.92,12.64,2.92s-1.49,8.78-6.87,11l-.12,0a75.42,75.42,0,0,0,8.05,12l.09-.09c4.12-4.12,9.84-5.07,12.79-2.13s2,8.67-2.13,12.79l-.09.09a75.42,75.42,0,0,0,12,8l0-.12c2.23-5.38,7.16-8.46,11-6.87s5.15,7.25,2.92,12.64a.61.61,0,0,0-.05.12A75.76,75.76,0,0,0,67.47,150s0-.08,0-.13c0-5.82,3.38-10.55,7.54-10.55s7.54,4.73,7.54,10.55c0,0,0,.09,0,.13a75.76,75.76,0,0,0,14.21-2.82.61.61,0,0,0,0-.12c-2.23-5.39-.92-11,2.92-12.64s8.78,1.49,11,6.87c0,0,0,.08,0,.12a75.42,75.42,0,0,0,12-8l-.09-.09c-4.12-4.12-5.07-9.84-2.13-12.79s8.67-2,12.79,2.13l.09.09a75.42,75.42,0,0,0,8-12l-.12,0c-5.38-2.23-8.46-7.16-6.87-11s7.25-5.15,12.64-2.92l.12,0A75.76,75.76,0,0,0,150,82.53h-.13c-5.82,0-10.55-3.38-10.55-7.54S144.05,67.46,149.87,67.46Z"/>
  </g>
  <g id="text">
    <path id="g" d="M70.92,59.92V47.7c0-8-5.45-16.42-13.41-16.42H52.66c-10,0-13.4,8.46-13.4,16.42v56.61c0,8,4.4,15.41,13.4,15.41h3.85c8,0,14.41-7.45,14.41-15.41V77H55.72V88.07h3.39v15.07c0,2.22-.38,5-4,5-3.39,0-4-2.81-4-5V46.86c0-2.22.63-5,4-5,3.64,0,4,2.81,4,5V59.92Z"/>
    <path id="a" class="cls-2" d="M100.69,30.78H84.61l-10,88.44H86.09l3.43-22h6.26l3.43,22h11.53Zm-8,57.79a7,7,0,1,1,7-7A7,7,0,0,1,92.65,88.57Z"/>
  </g>
</svg>
